<svg width="38" height="38" viewBox="0 0 38 38" fill="none" xmlns="http://www.w3.org/2000/svg">
<path d="M19 3.16669C10.26 3.16669 3.16669 10.26 3.16669 19C3.16669 27.74 10.26 34.8334 19 34.8334C27.74 34.8334 34.8334 27.74 34.8334 19C34.8334 10.26 27.74 3.16669 19 3.16669ZM19 7.91669C21.6284 7.91669 23.75 10.0384 23.75 12.6667C23.75 15.295 21.6284 17.4167 19 17.4167C16.3717 17.4167 14.25 15.295 14.25 12.6667C14.25 10.0384 16.3717 7.91669 19 7.91669ZM19 30.4C17.1188 30.4 15.2668 29.9345 13.6092 29.0449C11.9516 28.1553 10.5399 26.8694 9.50002 25.3017C9.54752 22.1509 15.8334 20.425 19 20.425C22.1509 20.425 28.4525 22.1509 28.5 25.3017C27.4601 26.8694 26.0484 28.1553 24.3908 29.0449C22.7332 29.9345 20.8812 30.4 19 30.4Z" fill="url(#paint0_linear_17_25)"/>
<defs>
<linearGradient id="paint0_linear_17_25" x1="19" y1="3.16669" x2="19" y2="34.8334" gradientUnits="userSpaceOnUse">
<stop stop-color="#FF0000"/>
<stop offset="1" stop-color="#C80000"/>
</linearGradient>
</defs>
</svg>
