<svg xmlns="http://www.w3.org/2000/svg" viewBox="0 0 200 200"><defs><style>.a{fill:#002841;}</style></defs><path class="a" d="M113.68,132.39a1.77,1.77,0,0,0,2,.5v10.26a4.9,4.9,0,0,0-1.21,0,43.22,43.22,0,0,1-24.31-8.34,48.41,48.41,0,0,0,10.34-14.19,42.76,42.76,0,0,0,6.09-.29,33.28,33.28,0,0,1,3.46,0c.54,0,1.5-.33,1.34-1.33a10.73,10.73,0,0,0-.63-2.09.6.6,0,1,1,1-.58,15.14,15.14,0,0,1,.84,1.83,6.08,6.08,0,0,0,1.79,2,8.54,8.54,0,0,0,1.71.92,9.27,9.27,0,0,1,3.3,2,9.16,9.16,0,0,1,.79,1c.87,1.12,1.08,1.67,0,3a6.31,6.31,0,0,1-4,2.17,2,2,0,0,1-2.34-1.21s-.21-.37-.29-.54l-.63-1.09a1.37,1.37,0,0,0-1.42-.66,14.08,14.08,0,0,0-2.91.5s-.59.29-.46.37a14.64,14.64,0,0,0,1.75,2.46,1.52,1.52,0,0,0,1.17.5c1,0,1,0,1.41.84a6.77,6.77,0,0,0,.59,1.21,4.28,4.28,0,0,0,.67.91Zm3.59-8.35a14.56,14.56,0,0,0-2.63.42,5.82,5.82,0,0,0,.58,2.09.91.91,0,0,0,1.13.63h0a2.49,2.49,0,0,0,1-.29,1.33,1.33,0,0,0,.63-1.58A2.69,2.69,0,0,0,117.27,124Zm25-12.8a3.74,3.74,0,0,0-1.29-1.79l-1.59-1.17-.75-.33a.69.69,0,0,0-.83.25l-.5.75a.76.76,0,0,1-.92.29c-.33,0-.5-.38-.54-.79a2.09,2.09,0,0,1,0-.5,7.71,7.71,0,0,1,1.5-3.13,1,1,0,0,1,.38-.38.76.76,0,0,1,1,0,42.77,42.77,0,0,0,3.42,3.17,5.32,5.32,0,0,1,1.71,3.8,2.44,2.44,0,0,1,0,.54.59.59,0,0,1-.55.37.52.52,0,0,1-.62-.25,3,3,0,0,1-.38-.83Zm-2.5,6.67a.64.64,0,0,1,.8.38.54.54,0,0,1,0,.25,2.09,2.09,0,0,1,0,.5c0,1.33-.37,2-2,2.13-.67,0-.87-.21-.92-.59a2,2,0,0,1,.84-2.12,4.14,4.14,0,0,1,1.21-.55Zm47.3-61.18L177,84.63H164.23v16.68A42.29,42.29,0,0,1,123,143H120.9V130.51l.79-.33a3.42,3.42,0,0,0,1.54-1.3,2,2,0,0,1,1.79-1c1.13,0,1.34,0,1.55-1.25s.33-2.08.54-3a3.27,3.27,0,0,0-.42-2.5c-.83-1.34-1.71-2.71-2.62-4.17s-.92-1-1.8,0l.79,1.41L124.9,121a1.85,1.85,0,0,1,.42.92,6,6,0,0,1-.63,3.88.63.63,0,0,0-.5.37,4.45,4.45,0,0,1-.25-.54,7.06,7.06,0,0,1,0-.92,4.45,4.45,0,0,0-1.08-3c-.88-1.13-1.67-2.25-2.51-3.38a2.29,2.29,0,0,1,.27-3.23l0,0A15.43,15.43,0,0,1,121.9,114a4.73,4.73,0,0,0,1.33-2,13.59,13.59,0,0,0,.54-1.75,18.42,18.42,0,0,0,.38-4.51v-1.12a1,1,0,0,1,.29-.75.63.63,0,0,1,.87-.18.58.58,0,0,1,.17.18,2.83,2.83,0,0,1,.34.75,11.94,11.94,0,0,1,.29,4.17,25.05,25.05,0,0,1-1,4.92,1.89,1.89,0,0,0,0,1,4.21,4.21,0,0,0,.71,0h1.41a6.33,6.33,0,0,0,4.17-2l1.67-1.54a.59.59,0,0,1,.71,0,.63.63,0,0,1,.38.75,6.29,6.29,0,0,1-.42,1.17,9.52,9.52,0,0,1-1,1.79,22,22,0,0,0-2,3.84c-.29.83-.67,1.66-1,2.5s0,1.08.79,1,.88,0,.92.75v.83a7.06,7.06,0,0,0,0,.92,2.1,2.1,0,0,0,2.44,1.66l.27-.07a11.82,11.82,0,0,0,1.59-.8l1.12-.66a7,7,0,0,1,3.46-1.21h1.55a2.61,2.61,0,0,0,2.17-1,7.63,7.63,0,0,1,1-1,1.26,1.26,0,0,1,1.75,0l1.62,1.13a13.24,13.24,0,0,0,2.67,1.5,5.42,5.42,0,0,0,2.72.5h.41a4.72,4.72,0,0,0-.5-.5,13.88,13.88,0,0,1-1.29-1,12,12,0,0,1-1.67-1.67c-.67-.75-1.25-1.54-1.83-2.33a17.42,17.42,0,0,1-1-1.42,1.7,1.7,0,0,1-.25-.88.54.54,0,0,1,.5-.58.51.51,0,0,1,.25,0,2.46,2.46,0,0,1,.8.46l2.37,2.29c.51.46,1,1,1.46,1.46a4.91,4.91,0,0,0,2,1.25,3.06,3.06,0,0,0,2.34,0l-.54-.45a13.83,13.83,0,0,1-5.22-4.59,29.41,29.41,0,0,1-2.46-4.38c-.79-1.75-1.37-3.63-2-5.47s-1.63-4.46-2.46-6.67a14.43,14.43,0,0,0-2.38-3.92,21.93,21.93,0,0,0-4.54-4.17c-1.71-1.17-3.51-2.13-5.3-3.13-3-1.67-6.13-3-9-4.92l-1-.5-.92-.33h-.5V56.73ZM121.65,91.39a2.37,2.37,0,0,1-.55-.59,1,1,0,0,1,0-1.08.93.93,0,0,1,.92-.5h.5a8.4,8.4,0,0,1,1,.5,11.22,11.22,0,0,1,3.62,3.79,5,5,0,0,1,.59,2.09c0,.25,0,.63-.34.75s-.54,0-.75-.37a12.73,12.73,0,0,0-3.83-3.8l-1.17-.83ZM85.78,131.3c-.67.63-1.38,1.29-2.13,1.88s-1.46,1.17-2.25,1.75a42.77,42.77,0,0,1-25.28,8.34A43.21,43.21,0,1,1,81.4,65.19,48.8,48.8,0,0,0,67.88,89.13,16.14,16.14,0,1,0,67.17,112c.25-.23.49-.47.71-.71a17.63,17.63,0,0,0,2.26-3,16.21,16.21,0,0,0,2.12-8A43.21,43.21,0,0,1,85.78,68.82c.71-.66,1.37-1.29,2.12-1.87s1.51-1.21,2.26-1.76a43.05,43.05,0,0,1,25.52-8.34V83.3a1.26,1.26,0,0,1-.54.33,4.62,4.62,0,0,1-1.46.37,16.33,16.33,0,0,0-10,5,17.8,17.8,0,0,0-2.29,3,16.32,16.32,0,0,0-2.13,8,43,43,0,0,1-13.51,31.37Z"/></svg>