<svg xmlns="http://www.w3.org/2000/svg" viewBox="0 0 200 200"><defs><style>.a{fill:#1d1d1b;}</style></defs><path class="a" d="M89,122.64a7.19,7.19,0,0,1-2.06-.31l-27.53-7.52h0c-5.43-1.63-6.5-3.4-7.32-5.55a2.53,2.53,0,0,0-1.42-1.45L17,97.92a4,4,0,0,1-2.86-2.06L12.27,92.6a1.3,1.3,0,0,0-.95-.7,4.55,4.55,0,0,1-3.86-2.53L6,86.74A1.28,1.28,0,0,0,5,86a3.21,3.21,0,0,1-3-1.6L.61,82a3.09,3.09,0,0,1-.14-3.17,3.09,3.09,0,0,1,2.72-1.42H83.78a7.76,7.76,0,0,1,5.71,2.14,7.92,7.92,0,0,1,2.06,3.93.74.74,0,0,0,.5.12H108c.35,0,.47-.1.5-.14a7.4,7.4,0,0,1,7.76-6h80.53a3.22,3.22,0,0,1,2.78,1.42h0a2.54,2.54,0,0,1,.37,1.37,3.74,3.74,0,0,1-.5,1.79l-1.49,2.46a3.17,3.17,0,0,1-3,1.6,1.36,1.36,0,0,0-.92.73l-1.51,2.63a4.49,4.49,0,0,1-3.86,2.53,1.37,1.37,0,0,0-1,.72l-1.8,3.24A4,4,0,0,1,183,97.92l-33.68,9.89a2.48,2.48,0,0,0-1.44,1.45c-.77,2.06-1.85,3.91-7.3,5.55l-13.82,3.71-12.57,3.42a10.22,10.22,0,0,1-1.21.31h0a6.29,6.29,0,0,1-6.18-1.29l-6.48-6.18a.56.56,0,0,0-.79,0l0,0h0L93.09,121h0A5.85,5.85,0,0,1,89,122.57m13.86-8.39,4.5,4.34A11.14,11.14,0,0,0,109,120a4.4,4.4,0,0,1-.52-1.36L107.14,114c-1.39.17-2.83.27-4.27.34m-10.06-.38-1.26,4.68A5.21,5.21,0,0,1,91,120a4.09,4.09,0,0,0,.61-.49h0l5.47-5.22a40.68,40.68,0,0,1-4.27-.32m16.1-.24,1.2,4.5a3.3,3.3,0,0,0,1.19,1.86,1.84,1.84,0,0,0,1.36.15l6.41-1.78a8.5,8.5,0,0,1-1.2-1.54l-2.66-4.5a58.9,58.9,0,0,1-6.32,1.27m-28,4.84,6.4,1.75a1.79,1.79,0,0,0,1.37-.23,3.18,3.18,0,0,0,1.19-1.84h0l1.21-4.5a57.39,57.39,0,0,1-6.35-1.36L83.21,115l-1.08,1.82a7.23,7.23,0,0,1-1.2,1.55m36.16-6.54,2.39,4.12c.37.67,1.33,1.86,2,1.78l7.21-2a5.54,5.54,0,0,1-.9-.77l-5-5.15a57.45,57.45,0,0,1-5.73,2.06m-38.51,5.9c.64.07,1.6-1.12,2-1.79l2.4-4.12a54.54,54.54,0,0,1-5.7-2.06l-4.58,4.78-.41.41h0a7.41,7.41,0,0,1-.91.77ZM68.3,115c1,.21,2.22-.82,2.59-1.2l4.54-4.72c-1.54-.73-3.09-1.52-4.56-2.39l-8.54,6.09c-.2.15-.4.28-.61.41Zm56.27-5.92,4.53,4.72c.37.38,1.64,1.43,2.6,1.2l6.57-1.79c-.32-.2-.53-.35-.59-.39l-8.56-6.12c-1.47.86-3,1.65-4.55,2.39m-23.7-11v14.42a50.52,50.52,0,0,0,5.78-.35l-3.91-14.11ZM93.26,112.2c1.9.2,3.84.31,5.78.35V98.12H97.25Zm-34.95,0a4,4,0,0,0,2.91-.81l8-5.68a53,53,0,0,1-4.79-3.32l-8.78,4.12-.4.18h0a9.81,9.81,0,0,1-1.81.66,5.61,5.61,0,0,1,.6,1.2c.48,1.19.95,2.39,4.31,3.69m72.39-6.49,7.95,5.69a4,4,0,0,0,2.9.8c3.35-1.21,3.85-2.51,4.31-3.7a5.06,5.06,0,0,1,.6-1.21,9.21,9.21,0,0,1-1.78-.64l-9.28-4.32a52.85,52.85,0,0,1-4.78,3.32M104.45,98l3.85,13.88a53.09,53.09,0,0,0,5.87-1.2L106.64,98ZM85.67,110.8A56.59,56.59,0,0,0,91.54,112l3.87-13.89H93.2c-1.09,1.83-4.71,8-7.53,12.75m-7.21-2.39a52.8,52.8,0,0,0,5.35,1.85L91,98.06H88.5Zm30.35-10.42L116,110.33a54.74,54.74,0,0,0,5.41-1.85l-10-10.42Zm5.09,0,9.27,9.67c1.44-.65,2.88-1.38,4.27-2.15l-10.5-7.52Zm-41.44,7.56c1.41.79,2.84,1.5,4.28,2.15L86,98.11H82.92l-10.5,7.51m64.63-4.43,8.47,4a5.79,5.79,0,0,0,3.24.62l8.25-2.39-16.65-5.15a44.51,44.51,0,0,1-3.31,3m-85.89,4.51a5.74,5.74,0,0,0,3.25-.64l8.44-4c-1.11-1-2.22-1.94-3.29-3l-16.64,5.16,2.39.72,5.8,1.71M120,98.06l9.12,6.52a51,51,0,0,0,4.49-3.09L126.23,98Zm-53.77,3.47q2.18,1.65,4.49,3.09l9.13-6.52H73.63ZM38.3,102a8.43,8.43,0,0,0,3.83-.29l15.95-4.94c-.62-.62-1.19-1.3-1.84-2L31.43,99.91h-.15Zm119.41-.32h0a7.86,7.86,0,0,0,3.82.29l7-2.06-24.95-5.16c-.58.67-1.19,1.34-1.84,2Zm-27.26-3.59,4.79,2.24c.43-.35,1.71-1.41,2.64-2.24Zm-68.34,0c.92.82,2.19,1.88,2.61,2.24l4.79-2.24Zm106.9.09a13.78,13.78,0,0,0,4.79.24l6.57-1.93-34.26-4.59c-.35.44-.71.9-1.09,1.34l8.24,1.7c12.9,2.65,15.28,3.09,15.77,3.26Zm-142.73.29A14.12,14.12,0,0,0,31,98.21l24-4.95-1.1-1.34L19.67,96.46Zm34.6-13V96.59h78.48V85.48Zm80.06,8.59v1.47l1.19-1.2Zm-82.78.22a8.44,8.44,0,0,0,1.19,1.2V94.07Zm-42.24.42c0,.08.42.4,1.56.24l35.15-4.72-1-1.36L14,91.39l.1.17Zm131.43-4.48L182.56,95c1.2.16,1.51-.16,1.57-.24l1.49-2.64.27-.45h0l.12-.21-37.68-2.54-1,1.33m-6.38,2.26,2.39.46,1.2-1.44L140.92,91Zm-85.17-1a15.57,15.57,0,0,0,1.19,1.37l2.39-.48V91Zm85.17-2.06,4.72.63c.32-.41.74-1,1-1.42l-5.74-.38Zm-87.34-.79,1,1.35,4.79-.63V88.26Zm-42.87.95a10.91,10.91,0,0,0,3,0l36.74-2.4c-.33-.49-.64-1-.95-1.47H7.79c.26.41.56.94.86,1.5l.72,1.2a2.31,2.31,0,0,0,1.35,1.25m138.84-2.4,36.73,2.4a12.29,12.29,0,0,0,3.09,0,2.27,2.27,0,0,0,1.29-1.25l1.53-2.7H150.5c-.3.5-.63,1-.95,1.47M141,86.74l6.82.43,1-1.59H141ZM51.47,85.56c.29.44.73,1.12,1,1.56l6.83-.43V85.56Zm145.25-6H156.54a5.16,5.16,0,0,0-4,2.62c-.31.58-.65,1.19-1,1.77h43.26c1-.06,1-.22,1.29-.56,0,0,1.34-2.25,1.44-2.4a1.89,1.89,0,0,0,.25-.77.4.4,0,0,0-.08-.28c-.18-.3-.53-.38-1-.39M110.48,84h39c.53-.88,1-1.76,1.51-2.62a7.33,7.33,0,0,1,1.41-1.78H116.24A5.74,5.74,0,0,0,112,81.08,5.91,5.91,0,0,0,110.52,84M50.57,84H89.49A6,6,0,0,0,88,81a5.73,5.73,0,0,0-4.21-1.51H47.62A7.85,7.85,0,0,1,49,81.27s.9,1.62,1.5,2.62m-45.32,0h43.3c-.36-.6-.69-1.2-1-1.77,0,0-1.53-2.63-4-2.63H3.27c-1,0-1,.51-1,.68a1.46,1.46,0,0,0,.25.76l1.19,2a2.3,2.3,0,0,1,.23.4h0c.26.4.35.5,1.32.57"/><path class="a" d="M67.87,94.83v-.11c-.38-1-.72-1.92-1-2.68H64.43v.07a26.23,26.23,0,0,0-1,2.56v.16H62.29l3.32-7.66h.53l3.3,7.66H67.87m-1.42-3.59-.82-1.88-.81,1.88Z"/><path class="a" d="M71.54,95a2.87,2.87,0,0,1-1.86-.67h0v-.11l.24-1.12h.4v.07a1.64,1.64,0,0,0,1.52,1A1.18,1.18,0,0,0,73,93v-.12c0-.76-.64-1-1.38-1.31s-1.87-.74-1.87-2.06A2.2,2.2,0,0,1,72,87.32h.33a2.47,2.47,0,0,1,1.63.54l.08.08v.13l-.34,1h-.43V89a1.11,1.11,0,0,0-1-.87,1,1,0,0,0-1,.94h0c0,.76.66,1,1.42,1.33s1.86.73,1.86,2.06a2.57,2.57,0,0,1-2.55,2.59h-.24"/><path class="a" d="M76.88,94.91V88.29a15.81,15.81,0,0,0-2.06.12h-.25v-1h5.88v1H80.2a17.69,17.69,0,0,0-1.93-.11v6.62H76.88"/><path class="a" d="M84.15,95a3.75,3.75,0,0,1-4-3.46,1.55,1.55,0,0,1,0-.43,3.84,3.84,0,0,1,3.72-3.94h.35c2.06,0,4.12,1.2,4.12,3.77A3.9,3.9,0,0,1,84.59,95h-.48m.14-7c-1.67,0-2.72,1.2-2.72,3.27a2.66,2.66,0,0,0,2.28,3h.35a2.41,2.41,0,0,0,1.8-.76,3.6,3.6,0,0,0,.88-2.28V91a3.17,3.17,0,0,0-.6-2.19,2.51,2.51,0,0,0-2-.92"/><path class="a" d="M95.25,94.83h0l-.62-.7-4.21-4.66v5.36h-1V87.31h.71l4.71,5.15V87.31h1v7.52h-.61"/><path class="a" d="M107.31,94.83v-.2c-.11-1.19-.29-3.36-.44-4.69-1,1.89-1.82,3.35-2.4,4.64v.13h-.39l-.64-1.29c-.4-.84-1.34-2.61-1.77-3.43v.5a38,38,0,0,0-.37,4.12v.22H100v-.25c.28-1.68.91-6,1-7.1v-.17h.61v.09c.8,1.59,1.72,3.38,2.77,5.15l1-2,1.79-3.26h.55v.19c.31,3,.58,5.35.83,7.1v.21h-1.4"/><path class="a" d="M114.73,94.83v-.11c-.35-1-.7-1.91-1-2.68h-2.35a25.66,25.66,0,0,0-.95,2.58v.21h-1.19l3.44-7.7h.48l.09.11,3.09,7.59h-1.57m-1.43-3.59-.82-1.88-.8,1.88Z"/><path class="a" d="M120.88,94.83h-.08l-.67-.93a17.11,17.11,0,0,1-1.2-1.6h0l-.76-.89h-.07v3.42h-1.38V87.31h2.39c1.68,0,2.53.61,2.53,1.8a2.25,2.25,0,0,1-1.94,2.15l2.91,3.57h-1.73m-2.81-4.28h.28a5.49,5.49,0,0,0,.8-.06,1.29,1.29,0,0,0,1.19-1.27,1,1,0,0,0-.9-1.1h0a3,3,0,0,0-.6,0h-.67Z"/><path class="a" d="M124.43,94.91V88.29a15.92,15.92,0,0,0-2.06.12h-.23v-1h5.8v1h-.25a17.65,17.65,0,0,0-1.92-.11v6.62h-1.34"/><rect class="a" x="128.67" y="87.35" width="1.29" height="7.54"/><path class="a" d="M137.21,94.83l-.61-.7-4.21-4.66v5.36h-1V87.31h.72l4.73,5.15V87.31h1v7.52h-.63"/></svg>