<svg width="31" height="35" viewBox="0 0 31 35" fill="none" xmlns="http://www.w3.org/2000/svg">
<path d="M22.125 17C24.4346 17 26.6496 17.9175 28.2827 19.5506C29.9159 21.1837 30.8334 23.3987 30.8334 25.7083C30.8334 28.0179 29.9159 30.2329 28.2827 31.866C26.6496 33.4992 24.4346 34.4166 22.125 34.4166C19.8154 34.4166 17.6004 33.4992 15.9673 31.866C14.3342 30.2329 13.4167 28.0179 13.4167 25.7083C13.4167 23.3987 14.3342 21.1837 15.9673 19.5506C17.6004 17.9175 19.8154 17 22.125 17V17ZM15 0.770813C16.3144 0.770727 17.579 1.27361 18.5344 2.17629C19.4898 3.07898 20.0635 4.31304 20.1379 5.62531L20.1459 5.91665H28.4584C28.7592 5.91674 29.0488 6.03103 29.2687 6.23644C29.4885 6.44184 29.6222 6.72304 29.6427 7.02321C29.6632 7.32338 29.569 7.62014 29.3792 7.85354C29.1893 8.08693 28.9179 8.23955 28.6199 8.28056L28.4584 8.29165H27.198L26.4064 16.3461C25.668 16.008 24.892 15.7593 24.0947 15.6051L24.8119 8.29165H5.18652L7.1926 28.6723C7.23702 29.1271 7.43742 29.5524 7.75979 29.8763C8.08216 30.2001 8.50664 30.4024 8.96119 30.4488L9.16227 30.4583H12.9939C13.4468 31.3307 14.0231 32.1303 14.6976 32.8333H9.16227C8.12908 32.8333 7.12957 32.4659 6.34236 31.7967C5.55515 31.1275 5.03154 30.2003 4.8651 29.1806L4.82869 28.9051L2.80044 8.29165H1.54169C1.25473 8.29163 0.977479 8.18771 0.761213 7.9991C0.544948 7.81048 0.404297 7.54994 0.36527 7.26565L0.354187 7.10415C0.354199 6.81719 0.458121 6.53994 0.646735 6.32367C0.835348 6.10741 1.09589 5.96676 1.38019 5.92773L1.54169 5.91665H9.85419C9.85419 4.55189 10.3963 3.24302 11.3614 2.27799C12.3264 1.31296 13.6353 0.770813 15 0.770813V0.770813ZM17.717 21.0992L17.6062 21.1895L17.5159 21.3003C17.4247 21.4325 17.3758 21.5893 17.3758 21.75C17.3758 21.9106 17.4247 22.0674 17.5159 22.1996L17.6062 22.3105L21.0056 25.7083L17.6062 29.1061L17.5159 29.217C17.4247 29.3492 17.3758 29.506 17.3758 29.6666C17.3758 29.8273 17.4247 29.9841 17.5159 30.1163L17.6062 30.2271L17.717 30.3174C17.8492 30.4086 18.0061 30.4575 18.1667 30.4575C18.3273 30.4575 18.4842 30.4086 18.6164 30.3174L18.7272 30.2271L22.125 26.8277L25.5229 30.2271L25.6337 30.3174C25.7659 30.4086 25.9227 30.4575 26.0834 30.4575C26.244 30.4575 26.4008 30.4086 26.533 30.3174L26.6439 30.2271L26.7341 30.1163C26.8253 29.9841 26.8742 29.8273 26.8742 29.6666C26.8742 29.506 26.8253 29.3492 26.7341 29.217L26.6439 29.1061L23.2444 25.7083L26.6439 22.3105L26.7341 22.1996C26.8253 22.0674 26.8742 21.9106 26.8742 21.75C26.8742 21.5893 26.8253 21.4325 26.7341 21.3003L26.6439 21.1895L26.533 21.0992C26.4008 21.008 26.244 20.9591 26.0834 20.9591C25.9227 20.9591 25.7659 21.008 25.6337 21.0992L25.5229 21.1895L22.125 24.5889L18.7272 21.1895L18.6164 21.0992C18.5037 21.0212 18.3726 20.9737 18.2361 20.9615C18.0995 20.9493 17.9621 20.9727 17.8374 21.0296L17.717 21.0992V21.0992ZM15 3.14581C14.3046 3.14584 13.6347 3.40733 13.1232 3.87839C12.6116 4.34944 12.2959 4.99562 12.2387 5.68865L12.2292 5.91665H17.7709C17.7709 5.18178 17.4789 4.477 16.9593 3.95737C16.4397 3.43774 15.7349 3.14581 15 3.14581Z" fill="url(#paint0_linear_164_3)"/>
<defs>
<linearGradient id="paint0_linear_164_3" x1="15.5938" y1="0.770813" x2="15.5938" y2="34.4166" gradientUnits="userSpaceOnUse">
<stop stop-color="#FD0000"/>
<stop offset="1" stop-color="#CA0000"/>
</linearGradient>
</defs>
</svg>
