<svg xmlns="http://www.w3.org/2000/svg" viewBox="0 0 200 200"><defs><style>.a,.c{fill:#1d1d1b;}.a,.b,.e,.f,.g{fill-rule:evenodd;}.b{fill:#ffec00;}.d,.f{fill:#fff;}.e{fill:#009540;}.g{fill:#e20613;}</style></defs><path class="a" d="M100,24.34c-42.4,0-67.69,15-67.69,15l.5,34.1c0,15.59,5.2,82.36,67.19,118.67,62-36.31,67.24-103,67.24-118.67l.45-34.1S142.42,24.34,100,24.34Z"/><path class="b" d="M165.14,41.79s-22-14-65.14-14S34.86,41.79,34.86,41.79l.74,31.69c0,12.42,2.37,78.93,64.47,115,62-36.1,64.4-102.61,64.4-115Z"/><path class="c" d="M98.48,33a5.19,5.19,0,0,1-.25,1.17c-.17.38-.6.66-.57.92a1.27,1.27,0,0,0,.75.8,3.46,3.46,0,0,0,1,.5c.4.1.92.4,1,0a1.18,1.18,0,0,0-.31-1.16c-.43-.69-.64-.87-1.26-1.82C98.77,33.25,98.67,33,98.48,33Z"/><path class="c" d="M95.29,108.44c0-.13,1.06.5,1.57.81A23.56,23.56,0,0,1,99.43,111c.76.57,1.12.88,1.9,1.54s1.46,1.53,1.74,1.35c.36-.43-.61-1.73-1.46-2.44s-1.73-1.25-2.37-1.73S98.3,109,97,108.14a21.15,21.15,0,0,1-2.56-2.08l-1.35-1L91,103.27l-2.34-2.14-1.73-2s-1.37-1.73-1.59-2-.87-1.37-1.4-2.25-1.41-2-1.49-2.12c-.51-.6-1.74-.36-3-1.14a4.92,4.92,0,0,1-2-1.73.8.8,0,0,0-.13-.19.66.66,0,0,0-.17-.12L76.32,89l-.48-.33a3.83,3.83,0,0,0-.82-.5c-.46-.19-1.5-.8-1.5-.8l-1.89-1.25-.95-.76c-.23-.16-.47-.31-.71-.45a1.31,1.31,0,0,0-.37-.15h-.47a.72.72,0,0,0-.72.32c-.37.42-.28.19.31,2.58.24,1,.21,4.28.47,5.2a17.69,17.69,0,0,0,1.31,3.19,4.13,4.13,0,0,1,.16.92,5,5,0,0,0,0,1c.28,1.73,2.79.59,3.34,2.94a9.08,9.08,0,0,1-.33,4.65s-.53,1.16-1.3,1.33-1.94-1.49-2.8-2.86a26.14,26.14,0,0,1-1.73-3.67,6.37,6.37,0,0,0-.59-1.09c-.38-.59-.7-.49-1.11-1.44s0-1.33-.24-2.16c-.11-.47-.21-.52-.35-1.18s-.33-2.74-.33-2.74l-.17-1.9s-.09-.91-.21-1.46a30.72,30.72,0,0,1-.57-3.81V83a2.55,2.55,0,0,1,0-.78,3.24,3.24,0,0,1,.27-.71s.4-.65.47-.83a11.88,11.88,0,0,1,.87-1.07A12,12,0,0,1,67,78.8a2.45,2.45,0,0,1,1.32-.38,10.71,10.71,0,0,1,1.38.12,43.72,43.72,0,0,1,4.35,1,10,10,0,0,1,1.85.69c1.39.76,1.73.43.7-.43A15.69,15.69,0,0,1,75,78.4c-.5-.47-.9-.78-1.28-1.21s-1.45-2-1.45-2l-.68-1s-.36-.39-.41-.43L71,73.57a3.39,3.39,0,0,1-.9,0c-.47,0-.69.57-.69.57a18.27,18.27,0,0,1-2,3,36.6,36.6,0,0,0-3.46,4.1c-.85,1.37-.66,2.88-1.11,3.57a5.31,5.31,0,0,0-.52.81c-.43,1.08,1.12,1.74.76,2.86-.55,1.89-5,3.76-5.58,3.47s-.12-2.88,0-3.71a10.85,10.85,0,0,1,.89-2.11,1.83,1.83,0,0,0,.26-.59c0-.37.07-.74.08-1.11a7.08,7.08,0,0,1,.16-.8,8.78,8.78,0,0,1,.41-.95c.4-.87,1.84-2.84,2.88-4.75.68-1.23,1-2,1.73-3.22s1.73-2.87,1.73-2.87.45-.89.68-1.22L67.35,69a7.25,7.25,0,0,1,1.09-1.61,3.46,3.46,0,0,1,1.39-.86,3.59,3.59,0,0,1,2.42.12,5.69,5.69,0,0,1,2.24,1.21,8.52,8.52,0,0,1,1,.95l.29.44.19.12.59.36,1.32.88,3.33,2.26a10.1,10.1,0,0,0,.84.62c.11,0,1-.88,2.58-2a11.78,11.78,0,0,1,3.21-1.56,5.7,5.7,0,0,0,1.37-1.12c.56-.7,1.1-1.42,1.59-2.17A9.93,9.93,0,0,1,92.38,65s.12-.1,1.61-1.73a16.09,16.09,0,0,0,2.23-3l.84-1.73S98.25,56,98.63,55A4.53,4.53,0,0,0,99,53.65a1.29,1.29,0,0,0-.24-.78c-.29-.52-.59-.28-1.16-.16a6.6,6.6,0,0,1-2.86-.24c-1-.17-1.54-.48-2.56-.66a8.76,8.76,0,0,0-2.65-.22,2.34,2.34,0,0,0-.63.12,5,5,0,0,0-1.17.48,2.82,2.82,0,0,1-1.39.33,2.28,2.28,0,0,1-1-.12,1.32,1.32,0,0,1-.57-.33l-.28-.31a.34.34,0,0,1,0-.28c.11-.19.23-.2.23-.2l.48-.12L86,51l1-.32a3,3,0,0,0,.59-.24s.17-.28.11-.43-.45-.19-.45-.19l-.59.21-.9.27-1.18.26a10.45,10.45,0,0,1-1.25.18H83s-.26-.18-.3-.35a2.26,2.26,0,0,1,0-.45,3.89,3.89,0,0,1-.09-1.73,3.09,3.09,0,0,1,.25-.66,3.29,3.29,0,0,1,.29-.52l.4-.68.78-1.12a2.88,2.88,0,0,1,.76-.59,3.09,3.09,0,0,1,1.39-.42A9.81,9.81,0,0,0,88,44a6.41,6.41,0,0,0,1.46-.54s2-.74,3.29-1.37A32.39,32.39,0,0,1,96,40.21a10.82,10.82,0,0,1,1.49-.49.24.24,0,0,0,.12-.17c0-.22-.28-.33-.5-.29s-.66.22-.76,0,.43-.28.43-.28.22-.12.24-.26-.35,0-.5,0a6.13,6.13,0,0,1-1.4-.36A7.43,7.43,0,0,0,93.38,38a5.25,5.25,0,0,0-1.52.2c-.36,0-.38-.28-.23-.35a3.48,3.48,0,0,1,1.74-.56,3.94,3.94,0,0,1,1,.11,1.91,1.91,0,0,0,1.07-.23c.21-.19-.66-.19-1.07-.34s-1-.19-.94-.44.3-.12.49-.17a2.9,2.9,0,0,1,.66,0c.26,0,.5-.1,1.17-.17a5.76,5.76,0,0,1,1.65.22l1.52.7a6.05,6.05,0,0,0,1.09.36,2.08,2.08,0,0,0,1.39-.35c.54-.34.23-.55,0-.86a1.42,1.42,0,0,1,0-1.51c.31-.69.47-1.49.55-1.58s.54.54.82.8a13.47,13.47,0,0,1,3.57,3.33c.08.15.55-.09,2,.13a6,6,0,0,1,2.93,2.12,1,1,0,0,0,.74.36h3.2a4.63,4.63,0,0,1,1.74,0c.46.17,2,1.2,1.3,1.58s-1-.31-1.39-.35a3.93,3.93,0,0,0-1.23.17c-1,.26-3.07.89-2.3,1.15h.53a12.54,12.54,0,0,1,1.48.43,13.41,13.41,0,0,1,2,1.14,4.18,4.18,0,0,0,1.11.66,7.75,7.75,0,0,0,1.18,0,4.66,4.66,0,0,1,1.49.49,10.92,10.92,0,0,1,1.73,1.38c.36.26.68.3,1,.66a.6.6,0,0,1,.14.21c.11.33-.54.14-.86,0a2.76,2.76,0,0,1-.87-.4,5.09,5.09,0,0,0-1.3-.59,4.52,4.52,0,0,0-1,0c-.4,0-.6.09-1,.09a6.78,6.78,0,0,1-1.74-.19c-.74-.16-1.1-.45-1.87-.61s-2.3-.88-2.14-.17c0,.34.85.64.85.64s.53.29,1,.52a2.12,2.12,0,0,1,.8.55l.36.26s.37.5.84,1.08a1.8,1.8,0,0,0,1.3.53,9.29,9.29,0,0,1,1.57.23,6.26,6.26,0,0,1,3.5,2c.49.58.21.87.16.94s0,0-.11,0-.66-.73-.66-.73l-.26.07a4.58,4.58,0,0,0-1-.47c-.55-.17-.72,0-.72,0a8.87,8.87,0,0,1-2.17.3,2.88,2.88,0,0,1-1.52-.43l-.64-.44s-1-.88-1-.46.43.6.43.6l.5.5c.39.38.54.58,1,1a1.27,1.27,0,0,0,.71.4h.59l.83.33a6.61,6.61,0,0,1,1.44.88.25.25,0,0,0,.17,0l.37.14h.64c.4,0,.24.31.24.31v.11l-.33.22a3.6,3.6,0,0,1-.73.13,2.35,2.35,0,0,1-.69-.14l-.9-.35-1.09-.26-1.14-.22a4.41,4.41,0,0,1-.64-.23,2.72,2.72,0,0,1-.8-.35,9.44,9.44,0,0,0-1.28-.71,1.44,1.44,0,0,0-1.42,0c-.78.56,1.17.64,2.14,1.13,1.44.71,2.26,1.23,2.6,2a3.29,3.29,0,0,0,.69,1.06,5.28,5.28,0,0,1,1.48,1c.24.29.29.53.53.81.56.66,1.63.62,1.86,1.18s-.89.28-1.44.22c-1-.1-1.26-1-2.2-1.4-.54-.21-.88-.21-1.42-.38-1-.33-1.46-.76-2.46-1.07-.59-.19-1.73-1-1.56-.37a1.42,1.42,0,0,0,.17.35,3.91,3.91,0,0,0,.3.41,5.23,5.23,0,0,0,.48.56A13.15,13.15,0,0,0,116.32,59a7.29,7.29,0,0,1,1.73,1.45,5.52,5.52,0,0,1,.4.66c.14.31,0,.4.24.83a2,2,0,0,0,.57.76c.68.66,1.37.52,2.24.87a1.48,1.48,0,0,1,.5.4c.24.28,0,.38,0,.38a6.89,6.89,0,0,1-1.56.21,4.69,4.69,0,0,1-1.92-.7,4,4,0,0,1-1.27-1.12l-.41-.35a5.22,5.22,0,0,0-.87-.29l-.88-.19c-.47-.14-1-.35-1.18-.42a1.43,1.43,0,0,0-1.11,0c-.74.43,1.14.73,1.73,1.35.31.33.42.54.71.87a4.35,4.35,0,0,0,.57.64,3.74,3.74,0,0,0,.52.28s.45.2,1.11.57a6.39,6.39,0,0,1,1.3,1.92l.47.73.28.41v.19l.1.23a3.3,3.3,0,0,0,.59.59c.26.15.21.28.21.28s0,.08-.21.19-.26,0-.5,0-.42-.32-.64-.49-.45-.62-.87-.86a4.08,4.08,0,0,0-1-.37c-.17,0-.62-.33-.79-.4l-.57-.5a9.07,9.07,0,0,0-1.39-.62c-.48-.14-.17.15-.17.15a4,4,0,0,0,.86,1c.54.35,1.3.68,1.06,1s-.4.12-.66,0a2,2,0,0,1-.88-.53,5.75,5.75,0,0,0-1.13-.44c-.92-.29-.57.21-.36.49a1.68,1.68,0,0,0,.48.4l.63.29h.27l1.08.23a3.38,3.38,0,0,1,1.28.58,9.8,9.8,0,0,0,1.06.87,3,3,0,0,0,1.57.62.29.29,0,0,1,.33.28,1.5,1.5,0,0,1,0,.3.14.14,0,0,1-.15.13h-.19a2.46,2.46,0,0,1-.45.11,10.09,10.09,0,0,1-1.74-.21,4.94,4.94,0,0,1-1.4-.69,11.66,11.66,0,0,0-1.19-.56,3,3,0,0,0-1.27,0l-.74.19c-.44.13.1.28.1.28h1a6.64,6.64,0,0,1,1.4.33,3.94,3.94,0,0,1,1.49,1.13,5.63,5.63,0,0,0,.9.71l.33.22.19.12v.26a.28.28,0,0,1-.14.12h-.14l-.9-.41a5.26,5.26,0,0,0-1-.42,2.6,2.6,0,0,0-.88,0,11.33,11.33,0,0,1-1.44.18,8.34,8.34,0,0,1-1.73,0c-1-.11-2.25-.89-2.42-.66s.69.57,1.19.86a12.58,12.58,0,0,0,1.87.75,8.07,8.07,0,0,1,1.37.43c1.09.5,1.44,1.27,2.32,2.06a2.67,2.67,0,0,0,1.54.75,5.64,5.64,0,0,0,1.46-.16c.88-.15,1.45-1,1.73-.73s0,.13,0,.21a1,1,0,0,1,0,.24,1.69,1.69,0,0,1-.28.32,6.23,6.23,0,0,1-1.09.64,5.92,5.92,0,0,1-2.13.31,6.72,6.72,0,0,1-2.39-.78l-1-.43-.78-.35c-.83-.31-1.37-.28-2.23-.52-.54-.14-.89-.28-1.37-.38s-.23,0-.18.15a2.21,2.21,0,0,0,.92.59c.52.25.87.19,1.4.42a9.7,9.7,0,0,1,1.41.78,4.54,4.54,0,0,1,.88.76l1.07.92a1.28,1.28,0,0,1,.28.29,1.06,1.06,0,0,1,0,.66c0,.35-.34.11-.34.11l-.3-.18-.28-.27-.45-.37a5.22,5.22,0,0,0-1-.69,5.28,5.28,0,0,0-1.47-.42s-.69-.1-.67.11.19.24.76.38a3.1,3.1,0,0,1,.92.43,7.58,7.58,0,0,1,1,.9,2.46,2.46,0,0,1,.54.94,4.38,4.38,0,0,0,.73.88c.54.52.81.35.78.59a.31.31,0,0,1-.26.29h-.19l-.35-.13a6.36,6.36,0,0,1-.69-.46l-1-.77-.92-.7-.85-.48a9.23,9.23,0,0,0-1.07-.44,4.81,4.81,0,0,0-.76-.12,5.13,5.13,0,0,1-.94-.22,7.74,7.74,0,0,1-1.3-.83,3.94,3.94,0,0,0-.69-.21,4.54,4.54,0,0,0-.4,1.58,11,11,0,0,0,1.39,6.16A31.09,31.09,0,0,0,113,93.5a12.64,12.64,0,0,1,1.42.91,45.32,45.32,0,0,1,4.88,4,50.28,50.28,0,0,1,3.46,4.12,21.83,21.83,0,0,1,1.74,2.74,22.36,22.36,0,0,1,1.17,3.46,1.63,1.63,0,0,0,.09.45s.14.18.21.18h.69a9.29,9.29,0,0,0,1.39-.19,14.7,14.7,0,0,0,2.54-1.11,14.17,14.17,0,0,0,1.74-1.25s.19-.16,1.14-1.21a11.12,11.12,0,0,0,1.73-3.24,14.84,14.84,0,0,0,.55-3.69,23.59,23.59,0,0,0-.1-3.85s-.35-2.89-.57-3.86-.78-2.53-.78-2.53-.36-1.42-.49-2.32-.13-2.37-.13-2.37a16.73,16.73,0,0,1,.29-2.55A11.56,11.56,0,0,1,136.69,76a9.76,9.76,0,0,1,2.58-2.34c.86-.64,2-1.73,2.37-1.41s-.4.77-.68,1a17.3,17.3,0,0,0-3,3.7,11.66,11.66,0,0,0-1.47,3.64,9.77,9.77,0,0,0-.11,2.53c0,.38.25.24.25.24a35.18,35.18,0,0,0,3.46-3.12c1.3-1.45,2.46-4,2.91-4.07s.45.68.38,1a7.86,7.86,0,0,1-.81,2.39A13.38,13.38,0,0,1,140.82,82a12.34,12.34,0,0,0-1.73,2.67,4.94,4.94,0,0,0-.34,3.34s.1.89.5.87c.66,0,2.13-1.87,3.08-3.36.69-1.11.95-2.39,1.42-3.07s.78,1,.61,1.89A8.61,8.61,0,0,1,142.42,88a5.2,5.2,0,0,0-1.13,3,19.46,19.46,0,0,0,0,2.16,17.58,17.58,0,0,0,.26,3.47,26.13,26.13,0,0,1,.43,3.18,14.6,14.6,0,0,1-1.26,6.93,19.57,19.57,0,0,1-1.61,2.32,15.69,15.69,0,0,1-1.55,1.39,20.51,20.51,0,0,1-2.35,1.28s-1.14.4-1.32.43a.7.7,0,0,0-.26.19s.11.23.16.31l.36.89a15.57,15.57,0,0,1,.47,2,3.55,3.55,0,0,1-.16,1.74c-.12.65-.39.34-.46,1.64s.45,1.73.34,3c0,.56-.67-.69-1-1.23a7.45,7.45,0,0,1-.5-3.37,5.53,5.53,0,0,0-.23-1.51,4.48,4.48,0,0,0-.83-1.73c-.34-.45-.69-.7-.81-.66s-.14.28-.14.4a2.37,2.37,0,0,0,.3.62l.48.88a7.87,7.87,0,0,1,.26,1.74,10.41,10.41,0,0,1-.28,2.6,17.48,17.48,0,0,1-1,2.58,17,17,0,0,1-1.73,2.49,7.49,7.49,0,0,0-1.51,2.1c-.65,1.29-.1,1.87-.33,2s-.76-.74-.91-1.37a2.33,2.33,0,0,1,.17-1.49,12.54,12.54,0,0,1,.74-1.52l.8-1.33a15.82,15.82,0,0,0,1.21-3.1,6.66,6.66,0,0,0,0-2.74s0-.47-.36-.45-.55.31-.69.66c-.26.71.12.57-.3,1.73s-.41.81-.57,1.37a6.76,6.76,0,0,0-.31,1.73c0,.4-.21.24-.21.24a4.12,4.12,0,0,1-.38-1.73c0-.43,0-.85,0-1.28a17.84,17.84,0,0,1,.42-2,7.88,7.88,0,0,0,.27-2.32c-.08-1.11-.46-1.32-.46-1.32s-.11-.15-.54-.12-.4.8-.4.8a17.42,17.42,0,0,1-.31,1.73,11.58,11.58,0,0,1-2.22,4.45,19.29,19.29,0,0,1-3,3.59c-.69.61-2.79,2.13-2.79,2.13l-2.46,1.73a7.67,7.67,0,0,0-1.44,2.08,4.62,4.62,0,0,0-.15,3.07A5.12,5.12,0,0,0,114,135a4.21,4.21,0,0,1,.71,1.38,5.24,5.24,0,0,1,0,1,6,6,0,0,1,0,.85,2,2,0,0,1-.21,1.32,2.41,2.41,0,0,1-.81.6s-.66.3-1.06.54a26.84,26.84,0,0,0-8,6.93c-.77.9-.21.85-1,1.92-.48.64-1.61.63-2,1.39-.57,1,1.27,2.06-.85,3a11.7,11.7,0,0,1-7.53,0c-.26-1,.92-2.18,1.33-2.64,1.92-2.09,3.62-2.14,4.26-3.88.12-.36,0-.69,1.6-1.81a58.79,58.79,0,0,0,7.22-6.15,6.4,6.4,0,0,0,1.47-2,1.26,1.26,0,0,0-.29-1.32L108,134.8l-1.36-2.58-1-2.2c-.33-.8-1-3-1-3a25.06,25.06,0,0,1-.56-3.21,15.58,15.58,0,0,1,.78-5.83c.78-2.88,2.55-4.07,3.26-6.93.19-.82.24-2.24-.18-2.17s-.43,1.18-.74,1.94c-1.13,2.83-2.63,4.06-3.46,6.93A16.4,16.4,0,0,0,103,123a13,13,0,0,0,.26,3,12.29,12.29,0,0,0,.52,1.89c.15.52.58,1.49.58,1.49a12.52,12.52,0,0,1,.78,2.2,2.44,2.44,0,0,1,.13.8,2,2,0,0,1-.21,1.14c-.31.61-.12,1-1.16,1.2a7.79,7.79,0,0,1-2.79-.42s-7.73-2.34-12.66-1.73A16,16,0,0,1,86,133c-.88,0-1.35-.71-2.23-.45-.19,0-.25.19-.4.29-1.32.92-.31,2.42-3.76,1.63-2.11-.47-4.68-1.73-4.23-2.58s1.39-1.27,3.05-1.94a14.89,14.89,0,0,1,5-.56,19.2,19.2,0,0,1,2.72-.52,5.73,5.73,0,0,1,2.33.19l3.47.3h6.48a7,7,0,0,0,1.61-.17c.46-.18.83-1,1.09-1.44a1.44,1.44,0,0,0,0-1.08l-.19-.29-.61-1-1.14-1.92-1.27-2.51s-.83-1.73-1.26-2.91a19.28,19.28,0,0,1-1-3,15,15,0,0,1-.52-3.19A9.6,9.6,0,0,1,95.29,108.44Z"/><path class="d" d="M137.33,106.1a8.67,8.67,0,0,0,1.57-5.67,20,20,0,0,0-.57-4.22l-.09-.19s-.24-.32-.38.1c0,.21,0,.43,0,.64v3.31a15,15,0,0,1-.66,3.38c-.95,2.89-3.46,4.19-3.86,5.19C132.86,110.39,135.7,108.19,137.33,106.1Z"/><path class="d" d="M123,111.43a.83.83,0,0,0-.58.71c0,.56.14,1,.13,1.73s-.78,1.82-.28,2.13c.85.56,1.59-3.29,1.33-3.86S123.12,111.43,123,111.43Z"/><path class="d" d="M113.42,138.11a.53.53,0,0,0-.46,0,.45.45,0,0,0-.3.45s0,.33.19.38.68-.57.66-.66A.56.56,0,0,0,113.42,138.11Z"/><path class="d" d="M104.38,144.48s-.1,0,0,.16a.12.12,0,0,0,.21,0s1.56-1.23,2.48-2.1,2.39-2.49,2.39-2.49a.2.2,0,0,0,0-.23c-.11-.1-.38,0-.59.17a1.63,1.63,0,0,0-.45.33c-.16.12-.61.59-.61.59l-1.21,1.18-.75.71-.74.71-.31.35-.11.17-.1.14-.1.14v.1A.41.41,0,0,1,104.38,144.48Z"/><path class="d" d="M101.68,146.25a.38.38,0,0,0-.43,0,1.81,1.81,0,0,0-.57.53s-.18.25,0,.42.43,0,.48,0a4,4,0,0,0,.49-.35.4.4,0,0,0,.07-.56Z"/><path class="d" d="M96.5,151.49s-.21-.43-.5-.26a1.83,1.83,0,0,0-.71.61s-.35.43-.4.52-.33.64.24.68c1,0,.35-.59.7-.84s.79-.13.81-.34A.65.65,0,0,0,96.5,151.49Z"/><path class="d" d="M78.8,130.57s-.61.14-.66.35.36.41.42.43.2.17.6-.1.38-.51.38-.51S79.77,130.48,78.8,130.57Z"/><path class="d" d="M88.53,130.24s0-.21-.43-.19-.52.11-.54.17,0,.18.42.21S88.52,130.43,88.53,130.24Z"/><path class="d" d="M97.75,130.52a8.51,8.51,0,0,0-1,0,16.15,16.15,0,0,1-2.2,0c-1.19-.09-3-.38-3-.38h-.33c-.09,0,.22.48.5.57a6.3,6.3,0,0,0,2.65.4,7.85,7.85,0,0,0,1.45-.09,7.24,7.24,0,0,0,1.86-.15C97.83,130.9,98,130.52,97.75,130.52Z"/><path class="d" d="M102.94,129s-.15-.19-.48,0a1.61,1.61,0,0,0-.52.52s-.14.22.17.19a1.83,1.83,0,0,0,.68-.23C102.88,129.45,103.15,129.17,102.94,129Z"/><path class="d" d="M98.42,66.69a23.65,23.65,0,0,0,3.76-4.8c.94-1.61,1.34-5.38.54-4.45-.36.44-.8,2.39-1.49,3.83a42.77,42.77,0,0,1-3.1,5S97.68,67.26,98.42,66.69Z"/><path class="d" d="M89.66,71.91a.42.42,0,0,0-.12.48c.1.3.55,0,.55,0A7.72,7.72,0,0,1,92.15,72a13.63,13.63,0,0,1,2.55.27l.83.25.56.24s.41.21.62,0S95.44,71.18,93.92,71a6.43,6.43,0,0,0-4.17.74Z"/><path class="d" d="M79.27,80.79c.17.16,1-1.44,1.73-2.46.5-.74,1.45-2,1.45-2s.42-.57-.29-.26A4.28,4.28,0,0,0,80.43,78C80,78.9,79.08,80.65,79.27,80.79Z"/><path class="d" d="M73.43,73.81a1.61,1.61,0,0,0,.55,1.4c.73.78.92,1.42,1.39,1,.12-.13-.45-1.19-.76-1.47l-.52-.54L73.9,74l-.19-.14h-.14a.09.09,0,0,0-.09-.09Z"/><path class="d" d="M71.07,67.85s-.79.16-1,.54.9.14.9.14.74,0,.76-.23S71.65,68,71.07,67.85Z"/><path class="d" d="M58.53,88.64c-.39-.12-.46.67-.52.93a1.13,1.13,0,0,0,.26.77c.11,0,.42-.51.44-.77S58.88,88.74,58.53,88.64Z"/><path class="d" d="M71.56,104.11s-.73-.56-.83-.33.59,1.23.59,1.23a.46.46,0,0,0,.53.17.45.45,0,0,0,.23-.52S71.85,104.19,71.56,104.11Z"/><path class="d" d="M66.12,87.37a.21.21,0,0,0-.25.15v0a8.59,8.59,0,0,0-.1,1,8.75,8.75,0,0,0,.08,1.25A7.63,7.63,0,0,0,66.05,91a7.36,7.36,0,0,0,.57,1.12s.18.35.37.33.14-.24.14-.24-.61-2.41-.63-2.65V87.67a.3.3,0,0,0-.28-.31Z"/><path class="d" d="M67.06,80.06s-.33,0-.64.58-.25.91-.21.93.27,0,.66-.57.29-.81.29-.81S67.14,80.06,67.06,80.06Z"/><path class="d" d="M76.2,86.68s.4.61-.38.47a18.52,18.52,0,0,1-3-1.73c-.66-.35-1.73-.47-1.28-.87.08,0,.1-.12.24-.14a3.31,3.31,0,0,1,.61.19l1.19.5a7.54,7.54,0,0,1,1.14.56c.45.26,1.18.78,1.18.78Z"/><path class="d" d="M97.49,105c.21.66-2.43-1.4-3.83-2.47-3.74-2.9-8.33-8.79-7.83-9.31s2.36,2.27,5.2,5.2S97.37,104.62,97.49,105Z"/><path class="d" d="M108.49,102.2a2.47,2.47,0,0,0-.64,2.82c.46.82.6-1.19,1.12-1.73s.69-.43,1.44-.93C111.64,101.42,109.51,101.09,108.49,102.2Z"/><path class="d" d="M103.79,83.56c-.55-.08-.53.76-.45,1.37a13.21,13.21,0,0,0,3.28,6.77c1,1.2,3.7,3.33,4,3a40.42,40.42,0,0,1-4.29-4.86,11.71,11.71,0,0,1-2-5.08C104.24,84.55,104.28,83.65,103.79,83.56Z"/><path class="d" d="M93.31,43.43A18.71,18.71,0,0,1,90,44.68s-.11.21.17.19a9.26,9.26,0,0,0,3.47-.8,4.67,4.67,0,0,0,1.73-1.57s.38-.73-.35-.14A11.88,11.88,0,0,1,93.31,43.43Z"/><path class="d" d="M108,38.79a1,1,0,0,0-.68,0c-.29.17-.21.31-.21.31a2.18,2.18,0,0,0,.75.4c.29,0,1,.33.93.1a1.92,1.92,0,0,0-.52-.74A.52.52,0,0,0,108,38.79Z"/><path class="d" d="M101.11,51.5a3.62,3.62,0,0,0,1.73-.47c.38-.2.52-.9.52-.9s.1-.69,0-.43C102.65,50.86,101,51.35,101.11,51.5Z"/><path class="d" d="M101.07,48.31c.51-1-1.36,1-2.32,1.51-.59.31-1.52.71-1.52.71s-.26.33.09.3,1.24.27,2-.28a12.49,12.49,0,0,0,.94-1.23A4.15,4.15,0,0,0,101.07,48.31Z"/><path class="d" d="M100.8,52.4a7.38,7.38,0,0,0,2.65,0c.41-.12.64-.85.64-.85s.26-.64,0-.41C103.15,52,100.74,52.25,100.8,52.4Z"/><path class="d" d="M67.09,71.61s-.31-.1-.71.49-2.16,3.27-1.84,3.65,1.89-2.41,2.36-2.94a1.16,1.16,0,0,0,.28-1.08A.12.12,0,0,0,67.09,71.61Z"/><path class="d" d="M105.56,120a5.91,5.91,0,0,0,.33,3.06c.76.9.29-1.4.4-2.21a4.6,4.6,0,0,1,.57-1.84C107.52,117.55,105.94,118.08,105.56,120Z"/><path class="d" d="M99.12,42.48a2.23,2.23,0,0,0-1,.26,1.19,1.19,0,0,0-.57.6.55.55,0,0,0,0,.4c.13.3.76-.17,1.19,0a1.57,1.57,0,0,1,.8.56c.24.29.66.71.93.46s.16-.81.16-.81a3,3,0,0,0-.71-1.21A1.25,1.25,0,0,0,99.12,42.48Z"/><path class="d" d="M89.45,49.15a.31.31,0,0,0-.27.37s0,0,0,.06c.09.4.3.33.3.33s.67-.28.62-.69S89.45,49.15,89.45,49.15Z"/><path class="d" d="M84.72,47a.81.81,0,0,0-.6.45,4.76,4.76,0,0,0-.38.9s-.13.57.08.76.44-.38.73-.59l.47-.33c.26-.17.67,0,.64-.45A.88.88,0,0,0,84.72,47Z"/><path class="d" d="M100,41.53s-.81-.11-.78.19.44.12.7.24a2,2,0,0,1,.64.34c.14.14.12.4.31.4s.21-.1.21-.1a2.17,2.17,0,0,0-.54-.88A.87.87,0,0,0,100,41.53Z"/><path class="d" d="M108.94,44.76a3.09,3.09,0,0,1-.18.59s-.22.89.66.56a4.81,4.81,0,0,0,1.08-.5c.64-.32.62-.14,1.1-.13a1,1,0,0,0,.49,0c.21,0,.12-.27-.33-.39a9.09,9.09,0,0,0-1.73-.11C109.58,44.75,109.06,44.33,108.94,44.76Z"/><path class="d" d="M109.34,41.47a1.2,1.2,0,0,0-.7.09c-.27.17-.19.31-.19.31a1.89,1.89,0,0,0,.73.38c.31,0,1,.35.95.12a1.87,1.87,0,0,0-.53-.74A.8.8,0,0,0,109.34,41.47Z"/><path class="d" d="M110.91,47.64a1.14,1.14,0,0,0-.73,0c-.31.17-.22.29-.22.29a2.17,2.17,0,0,0,.8.37c.33,0,1,.31,1,.1a1.84,1.84,0,0,0-.55-.71A1,1,0,0,0,110.91,47.64Z"/><path class="d" d="M111.05,49.89a1.17,1.17,0,0,0-.78.09c-.31.19-.22.34-.22.34a2.5,2.5,0,0,0,.83.42c.34,0,1.09.36,1.05.12a1.81,1.81,0,0,0-.58-.81A.73.73,0,0,0,111.05,49.89Z"/><path class="d" d="M111.26,52.07a1.37,1.37,0,0,0-.85,0c-.35.23-.24.4-.24.4a2.77,2.77,0,0,0,.9.47c.38,0,1.19.42,1.16.14a2.47,2.47,0,0,0-.64-.92A1,1,0,0,0,111.26,52.07Z"/><path class="d" d="M111.21,54.76a1.37,1.37,0,0,0-.85.1c-.33.23-.23.4-.23.4a2.87,2.87,0,0,0,.9.47c.37,0,1.18.4,1.15.14a2.39,2.39,0,0,0-.64-.92A.92.92,0,0,0,111.21,54.76Z"/><path class="d" d="M110.84,60a1.33,1.33,0,0,0-.76.14c-.35.21-.24.38-.24.38a2.36,2.36,0,0,0,.9.47c.38,0,1.19.42,1.16.14a2.47,2.47,0,0,0-.64-.92A.84.84,0,0,0,110.84,60Z"/><path class="d" d="M111.19,57.39a1.48,1.48,0,0,0-1,.12c-.4.24-.28.44-.28.44a3.15,3.15,0,0,0,1,.55c.45,0,1.39.47,1.34.16a2.8,2.8,0,0,0-.73-1.06A1.28,1.28,0,0,0,111.19,57.39Z"/><path class="d" d="M110.6,62.4a1.08,1.08,0,0,0-.71,0c-.28.17-.19.31-.19.31a1.93,1.93,0,0,0,.74.38c.32,0,1,.35,1,.12a2.29,2.29,0,0,0-.54-.76A.75.75,0,0,0,110.6,62.4Z"/><path class="d" d="M110.2,64.68a.8.8,0,0,0-.57,0c-.24.14-.17.26-.17.26a1.55,1.55,0,0,0,.62.42c.26,0,.81.29.78.1a1.58,1.58,0,0,0-.43-.62A.46.46,0,0,0,110.2,64.68Z"/><path class="d" d="M109.72,66.74a.77.77,0,0,0-.52,0c-.23.14-.16.25-.16.25a2.29,2.29,0,0,0,.56.29c.24,0,.72.24.71,0a1.56,1.56,0,0,0-.4-.55A.59.59,0,0,0,109.72,66.74Z"/><path class="d" d="M109.21,68.46a.74.74,0,0,0-.51,0c-.21.14-.14.24-.14.24a1.48,1.48,0,0,0,.55.3c.23,0,.73.24.71.08a1.73,1.73,0,0,0-.4-.57A.46.46,0,0,0,109.21,68.46Z"/><path class="d" d="M108.63,70.43a.75.75,0,0,0-.42,0c-.17.11-.12.19-.12.19a1.07,1.07,0,0,0,.45.23c.19,0,.59.21.57,0a1.17,1.17,0,0,0-.31-.45A.47.47,0,0,0,108.63,70.43Z"/><path class="d" d="M107.92,72.29a.59.59,0,0,0-.37,0c-.14,0-.1.17-.1.17a1,1,0,0,0,.4.19c.15,0,.5.17.48,0a1,1,0,0,0-.28-.4Z"/><path class="d" d="M107.19,74a.48.48,0,0,0-.37,0c-.15,0-.1.15-.1.15a1.41,1.41,0,0,0,.38.21c.17,0,.52.18.5,0a1.09,1.09,0,0,0-.27-.4Z"/><path class="d" d="M59.66,83s-.36.71-.19,1.11.68-.62.68-.62.51-1,.31-1.2S60.11,82.68,59.66,83Z"/><path class="c" d="M87.56,145.52a.31.31,0,0,0-.53,0,1.47,1.47,0,0,1-1.2.62,3,3,0,0,1-1.21-.27l-.8-.37a7.63,7.63,0,0,0-2.27-.5A5.17,5.17,0,0,0,78,146.3,4.48,4.48,0,0,0,77,148a4.55,4.55,0,0,0,.19,2.37,6.22,6.22,0,0,0,2.13,2.25c1.15.7,1.65,1,1.65,1l2,.92,1.86.69s2.65.8,3,2.8-.88,4.61-4.54,4.85-5.37-1.52-5.92-2.65a2.81,2.81,0,0,1-.24-2.07l.15-.32h.14a1.92,1.92,0,0,0,1.11.32,1.62,1.62,0,0,0,1.35-1.82,1.53,1.53,0,0,0-1.65-1.27c-.46,0-2.52.57-2.58,3.57a5.68,5.68,0,0,0,2.71,4.61,8.1,8.1,0,0,0,4.13,1.11,11.56,11.56,0,0,0,4-1,6.3,6.3,0,0,0,3.32-5.2,5.19,5.19,0,0,0-2.15-4.78,9.84,9.84,0,0,0-1.54-.9l-2.47-1.18-1.74-.81-1.09-.61-.59-.41s-1.45-1.13-.67-2.38,3-.76,3-.76a7.82,7.82,0,0,1,5.11,3.46l.56.92v.12l.48-.17a27.56,27.56,0,0,1-.88-2.94C87.67,146.87,87.56,145.52,87.56,145.52Z"/><path class="c" d="M108.9,157.42A1.8,1.8,0,0,0,110,158a1.55,1.55,0,0,0,1.56-1.53v-.1a1.64,1.64,0,0,0-1.2-1.48,2.39,2.39,0,0,0-2.65,1.39,5.17,5.17,0,0,0-.4,3.46,6,6,0,0,0,3,3.88,6.83,6.83,0,0,0,5.35.39,9.79,9.79,0,0,0,3.88-2.71,15.45,15.45,0,0,0,2.64-4.5l.62-1.56h.76a2.73,2.73,0,0,0,1.73-.5,6.12,6.12,0,0,0,1.22-1.42l.08-.26-.47-.23a2.15,2.15,0,0,1-1.31.78,6.61,6.61,0,0,1-1.54,0l.72-1.95s.85-1.74,1.1-2.08l1.21-1.73a24.21,24.21,0,0,0,4-.42,21.38,21.38,0,0,0,3.15-.9l2.43-1,.59-.31-.19-.48a26.13,26.13,0,0,1-5.39,1.14,18.87,18.87,0,0,1-5.2,0l-3.63-.55a18.05,18.05,0,0,0-1.94-.25,18.84,18.84,0,0,0-2.6.32,8.86,8.86,0,0,0-2.53,1c-.78.59-2.65,2-1.73,4.07s4.36,1,4.85-.57l.19-.5V149l-.3-.1-.36.4s-1.3,1.11-2.3.4a1.2,1.2,0,0,1-.28-1.67l.05-.06a3.46,3.46,0,0,1,1.94-1.06,9.23,9.23,0,0,1,3.27.17l2.15.4,1.23.23h.44l-.75.83a10.7,10.7,0,0,0-1.84,2.54c-.76,1.49-1.1,2.29-1.1,2.29v.1a5,5,0,0,0-1.56.49,3.69,3.69,0,0,0-1,.92l-.27.52.38.31a2.27,2.27,0,0,1,1-.63,1.48,1.48,0,0,1,.93,0s-.76,1.91-1.14,2.6a12.66,12.66,0,0,1-1.92,2.91,4.93,4.93,0,0,1-3.47,2,4.35,4.35,0,0,1-3.93-1.63,4,4,0,0,1-.85-2.29A3,3,0,0,1,108.9,157.42Z"/><polygon class="e" points="32.14 24.81 32.14 20.74 100 7.85 167.86 20.74 167.86 24.83 100 12.27 32.14 24.81"/><polygon class="f" points="32.14 24.76 32.14 29.18 100 16.7 167.86 29.16 167.86 24.76 100 12.2 32.14 24.76"/><path class="g" d="M100,24.34c42.4,0,67.69,15,67.69,15l.17-10.2L100,16.7,32.14,29.16l.17,10.22S57.65,24.34,100,24.34Z"/></svg>