<svg width="38" height="38" viewBox="0 0 38 38" fill="none" xmlns="http://www.w3.org/2000/svg">
<path d="M11.0833 28.5C9.34165 28.5 7.93248 29.925 7.93248 31.6667C7.93248 33.4084 9.34165 34.8334 11.0833 34.8334C12.825 34.8334 14.25 33.4084 14.25 31.6667C14.25 29.925 12.825 28.5 11.0833 28.5ZM26.9166 28.5C25.175 28.5 23.7658 29.925 23.7658 31.6667C23.7658 33.4084 25.175 34.8334 26.9166 34.8334C28.6583 34.8334 30.0833 33.4084 30.0833 31.6667C30.0833 29.925 28.6583 28.5 26.9166 28.5ZM24.6208 20.5834C25.8083 20.5834 26.8533 19.9342 27.3916 18.9525L33.06 8.67669C33.1934 8.43669 33.2619 8.16602 33.2586 7.89144C33.2553 7.61687 33.1804 7.34791 33.0412 7.11118C32.902 6.87446 32.7035 6.67817 32.4652 6.54175C32.2269 6.40532 31.9571 6.33349 31.6825 6.33335H8.24915L6.76081 3.16669H1.58331V6.33335H4.74998L10.45 18.3509L8.31248 22.2142C7.15665 24.3359 8.67665 26.9167 11.0833 26.9167H30.0833V23.75H11.0833L12.825 20.5834H24.6208ZM9.75331 9.50002H28.9908L24.6208 17.4167H13.5058L9.75331 9.50002Z" fill="url(#paint0_linear_15_9)"/>
<defs>
<linearGradient id="paint0_linear_15_9" x1="17.421" y1="3.16669" x2="17.421" y2="34.8334" gradientUnits="userSpaceOnUse">
<stop stop-color="#F90000"/>
<stop offset="1" stop-color="#C40000"/>
</linearGradient>
</defs>
</svg>
