<svg xmlns="http://www.w3.org/2000/svg" xmlns:xlink="http://www.w3.org/1999/xlink" viewBox="0 0 200 200"><defs><style>.a{fill:none;}.b{fill:#e3032e;fill-rule:evenodd;}.c{clip-path:url(#a);}.d{fill:url(#b);}.e{clip-path:url(#c);}.f{fill:url(#d);}.g{clip-path:url(#e);}.h{fill:url(#f);}.i{clip-path:url(#g);}.j{fill:url(#h);}</style><clipPath id="a"><path class="a" d="M-190.63,100A70.63,70.63,0,0,1-120,29.37,70.63,70.63,0,0,1-49.37,100,70.63,70.63,0,0,1-120,170.63,70.63,70.63,0,0,1-190.63,100m-9.63,0A80.26,80.26,0,0,0-120,180.26,80.26,80.26,0,0,0-39.74,100,80.26,80.26,0,0,0-120,19.73,80.26,80.26,0,0,0-200.26,100"/></clipPath><linearGradient id="b" x1="-518.4" y1="171.66" x2="-517.26" y2="171.66" gradientTransform="matrix(0, 140.04, 140.04, 0, -24159.87, 72619.25)" gradientUnits="userSpaceOnUse"><stop offset="0" stop-color="#0f2026"/><stop offset="0.03" stop-color="#0f2026"/><stop offset="0.17" stop-color="#3b454a"/><stop offset="0.5" stop-color="#b1b5b7"/><stop offset="0.83" stop-color="#dedfdb"/><stop offset="0.97" stop-color="#fbfaf7"/><stop offset="0.97" stop-color="#fbfaf7"/><stop offset="1" stop-color="#fbfaf7"/></linearGradient><clipPath id="c"><path class="a" d="M-195.45,100A75.45,75.45,0,0,1-120,24.55,75.45,75.45,0,0,1-44.55,100,75.45,75.45,0,0,1-120,175.45,75.45,75.45,0,0,1-195.45,100m-4.81,0A80.26,80.26,0,0,0-120,180.26,80.26,80.26,0,0,0-39.74,100,80.26,80.26,0,0,0-120,19.73,80.26,80.26,0,0,0-200.26,100"/></clipPath><linearGradient id="d" x1="-518.4" y1="171.66" x2="-517.26" y2="171.66" gradientTransform="matrix(0, 140.04, 140.04, 0, -24159.87, 72619.25)" gradientUnits="userSpaceOnUse"><stop offset="0" stop-color="#fbfaf7"/><stop offset="0.03" stop-color="#fbfaf7"/><stop offset="0.17" stop-color="#eceeeb"/><stop offset="0.4" stop-color="#c2c4c5"/><stop offset="0.83" stop-color="#333e43"/><stop offset="0.97" stop-color="#485156"/><stop offset="0.97" stop-color="#485156"/><stop offset="1" stop-color="#485156"/></linearGradient><clipPath id="e"><path class="a" d="M-200.18,100A80.18,80.18,0,0,1-120,19.81,80.18,80.18,0,0,1-39.82,100,80.18,80.18,0,0,1-120,180.18,80.18,80.18,0,0,1-200.18,100m-.61,0A80.79,80.79,0,0,0-120,180.79,80.79,80.79,0,0,0-39.21,100,80.79,80.79,0,0,0-120,19.21,80.79,80.79,0,0,0-200.79,100"/></clipPath><linearGradient id="f" x1="-518.42" y1="171.65" x2="-517.27" y2="171.65" gradientTransform="matrix(0, 140.95, 140.95, 0, -24314.37, 73092.26)" gradientUnits="userSpaceOnUse"><stop offset="0" stop-color="#3b454a"/><stop offset="0.03" stop-color="#3b454a"/><stop offset="0.05" stop-color="#475055"/><stop offset="0.1" stop-color="#636b6f"/><stop offset="0.14" stop-color="#777e81"/><stop offset="0.19" stop-color="#83898c"/><stop offset="0.24" stop-color="#878d90"/><stop offset="0.5" stop-color="#6c7275"/><stop offset="0.64" stop-color="#707679"/><stop offset="0.78" stop-color="#7c8285"/><stop offset="0.93" stop-color="#909699"/><stop offset="0.97" stop-color="#989ea1"/><stop offset="0.97" stop-color="#989ea1"/><stop offset="1" stop-color="#989ea1"/></linearGradient><clipPath id="g"><path class="a" d="M-190.11,100A70.11,70.11,0,0,1-120,29.89,70.11,70.11,0,0,1-49.89,100,70.11,70.11,0,0,1-120,170.11,70.11,70.11,0,0,1-190.11,100m-.6,0A70.71,70.71,0,0,0-120,170.71,70.71,70.71,0,0,0-49.29,100,70.71,70.71,0,0,0-120,29.29,70.71,70.71,0,0,0-190.71,100"/></clipPath><linearGradient id="h" x1="-521.74" y1="168.34" x2="-520.59" y2="168.34" gradientTransform="matrix(0, -139.59, -139.59, 0, 23378.21, -72648.27)" gradientUnits="userSpaceOnUse"><stop offset="0" stop-color="#3b454a"/><stop offset="0.03" stop-color="#3b454a"/><stop offset="0.1" stop-color="#485155"/><stop offset="0.23" stop-color="#5c6367"/><stop offset="0.37" stop-color="#686e71"/><stop offset="0.5" stop-color="#6c7275"/><stop offset="0.64" stop-color="#707679"/><stop offset="0.78" stop-color="#7c8285"/><stop offset="0.93" stop-color="#909699"/><stop offset="0.97" stop-color="#989ea1"/><stop offset="0.97" stop-color="#989ea1"/><stop offset="1" stop-color="#989ea1"/></linearGradient></defs><path class="b" d="M110.61,20.1A79.88,79.88,0,0,0,30.71,100c0,1.58.05,3.11.11,4.63H20.39a1.23,1.23,0,0,0-1.12.77c-.17.41-9.43,16.7-9.67,17.11s-.17.65.3.65H34.11A79.91,79.91,0,1,0,110.61,20.1ZM53.51,123.16H74.79L64.53,140.92A63.63,63.63,0,0,1,53.51,123.16Zm57.1,38.45a61.37,61.37,0,0,1-43-17.53H84.87s49.71-87.58,49.88-87.92.12-.6-.22-.6H114.24c-.41,0-.47.13-.58.3s-28,48.77-28,48.77H49.17c-.12-1.52-.17-3-.17-4.63A61.56,61.56,0,0,1,154.87,57.21c-4.87,8.21-26.68,45.25-29.61,50.65-1.7-3.93-9.56-3.17-13.6-3.23-1.76,2.93-10,18.53-10,18.53s4.57-.06,8.67,0,4.46,4.22,2.88,6.86-8.1,14.06-8.1,14.06H126L166.3,73.74A60.73,60.73,0,0,1,172.22,100,61.64,61.64,0,0,1,110.61,161.61Z"/><g class="c"><rect class="d" x="-233.51" y="-13.51" width="227.02" height="227.02" transform="translate(-105.86 -55.56) rotate(-45)"/></g><g class="e"><rect class="f" x="-233.51" y="-13.51" width="227.02" height="227.02" transform="translate(-105.86 -55.56) rotate(-45)"/></g><g class="g"><rect class="h" x="-234.25" y="-14.25" width="228.5" height="228.5" transform="translate(-105.86 -55.56) rotate(-45)"/></g><g class="i"><rect class="j" x="-220" width="200.01" height="200.01" transform="translate(-105.86 -55.56) rotate(-45)"/></g></svg>