<svg width="30" height="32" viewBox="0 0 30 32" fill="none" xmlns="http://www.w3.org/2000/svg">
<path d="M21.3333 23.9167V19.1667H10.25V12.8333H21.3333V8.08332L29.25 16L21.3333 23.9167ZM18.1667 0.166656C19.0065 0.166656 19.812 0.500286 20.4058 1.09415C20.9997 1.68802 21.3333 2.49347 21.3333 3.33332V6.49999H18.1667V3.33332H3.91667V28.6667H18.1667V25.5H21.3333V28.6667C21.3333 29.5065 20.9997 30.312 20.4058 30.9058C19.812 31.4997 19.0065 31.8333 18.1667 31.8333H3.91667C3.07681 31.8333 2.27136 31.4997 1.6775 30.9058C1.08363 30.312 0.75 29.5065 0.75 28.6667V3.33332C0.75 2.49347 1.08363 1.68802 1.6775 1.09415C2.27136 0.500286 3.07681 0.166656 3.91667 0.166656H18.1667Z" fill="url(#paint0_linear_160_3)"/>
<defs>
<linearGradient id="paint0_linear_160_3" x1="15" y1="0.166656" x2="15" y2="31.8333" gradientUnits="userSpaceOnUse">
<stop stop-color="#FC0000"/>
<stop offset="1" stop-color="#CC0000"/>
</linearGradient>
</defs>
</svg>
