<svg width="90" height="90" viewBox="0 0 90 90" fill="none" xmlns="http://www.w3.org/2000/svg">
<path fill-rule="evenodd" clip-rule="evenodd" d="M44.7481 0.000188306C35.8976 -0.00153979 27.2455 2.57321 19.8862 7.39872C12.527 12.2242 6.79126 19.0837 3.40474 27.1092C0.0182201 35.1348 -0.86696 43.9659 0.861184 52.4854C2.58933 61.0048 6.85314 68.8298 13.1132 74.9704C21.5046 83.2052 32.8853 87.8309 44.7516 87.83C56.6179 87.8291 67.9978 83.2016 76.3879 74.9655C84.778 66.7294 89.4909 55.5594 89.49 43.9127C89.4891 32.266 84.7743 21.0968 76.3829 12.862C72.2391 8.77053 67.3092 5.52694 61.8789 3.31914C56.4486 1.11134 50.6258 -0.0167662 44.7481 0.000188306V0.000188306ZM9.80987 61.2518C6.87706 55.5576 5.43532 49.2361 5.6148 42.858C5.79429 36.48 7.58936 30.2463 10.8379 24.7196C14.0865 19.1929 18.6864 14.5473 24.2221 11.2023C29.7579 7.85722 36.0553 5.91799 42.5458 5.55967C42.572 5.55549 42.5989 5.55784 42.624 5.5665C42.649 5.57516 42.6715 5.58985 42.6892 5.60922C42.707 5.6286 42.7195 5.65204 42.7257 5.67741C42.7318 5.70277 42.7314 5.72924 42.7244 5.75439L37.7644 39.8317C37.7541 39.9051 37.7149 39.9715 37.6553 40.0167V40.0167L10.0777 61.2907C10.0583 61.3073 10.0354 61.3195 10.0107 61.3265C9.98606 61.3336 9.96011 61.3353 9.93468 61.3316C9.90925 61.3279 9.88494 61.3189 9.86339 61.3051C9.84185 61.2913 9.82359 61.2731 9.80987 61.2518V61.2518ZM77.6328 64.8153C76.1165 67.0693 74.3716 69.1668 72.4248 71.0758C68.7907 74.6439 64.476 77.4743 59.7271 79.4054C54.9783 81.3364 49.8884 82.3304 44.7481 82.3304C39.6078 82.3304 34.5178 81.3364 29.769 79.4054C25.0201 77.4743 20.7054 74.6439 17.0713 71.0758C15.8653 69.8767 14.7325 68.6087 13.6787 67.2786C12.9446 66.305 12.3494 65.4871 12.0022 64.9808C11.9868 64.9592 11.9766 64.9345 11.9723 64.9085C11.968 64.8825 11.9697 64.8559 11.9773 64.8306C11.9849 64.8054 11.9983 64.7821 12.0163 64.7626C12.0344 64.7431 12.0567 64.7278 12.0815 64.718L44.5397 51.9049C44.6031 51.869 44.6749 51.8501 44.7481 51.8501C44.8212 51.8501 44.893 51.869 44.9564 51.9049L77.5336 64.5622C77.5805 64.5834 77.617 64.6217 77.6355 64.669C77.654 64.7163 77.6531 64.7687 77.6328 64.8153V64.8153ZM79.6863 61.281C79.6547 61.3119 79.6118 61.3293 79.5672 61.3293C79.5226 61.3293 79.4798 61.3119 79.4482 61.281L51.6722 39.861C51.6722 39.861 51.6722 39.861 51.6722 39.7539L46.7717 5.6765V5.70571C46.7788 5.66446 46.8007 5.62705 46.8335 5.60027C46.8662 5.57348 46.9077 5.55908 46.9503 5.55967C56.9345 6.10949 66.3255 10.3898 73.1954 17.5218C80.0653 24.6538 83.8928 34.0965 83.8923 43.9113C83.9065 49.9458 82.4652 55.898 79.6863 61.281Z" fill="white"/>
<path d="M45.38 45.75C45.2946 45.6993 45.1989 45.6686 45.1 45.66V45.66C45.05 45.66 45.02 45.74 45.01 45.85C45.01 46.76 44.88 49.85 44.8 51.41C44.8 51.56 44.8 51.71 44.8 51.85C44.8 52.35 44.8 52.48 44.73 52.48C44.73 52.48 44.73 52.35 44.66 51.82C44.66 51.69 44.66 51.55 44.66 51.42C44.58 49.99 44.5 47.3 44.45 45.83C44.45 45.74 44.45 45.68 44.36 45.66H44.3C44.2114 45.6657 44.1255 45.6932 44.05 45.74L9.69 65.31C9.71913 65.3341 9.74591 65.3609 9.77 65.39C10.2044 65.7676 10.702 66.0655 11.24 66.27L44.66 52.83L78.36 66.17C78.95 66.091 79.5124 65.8715 80 65.53L79 64.98C73.49 61.82 45.69 45.93 45.38 45.75ZM83.71 29.75C82.945 27.7758 82.0289 25.8635 80.97 24.03L80.79 23.72L80.62 23.44C75.2025 14.4996 66.6733 7.8756 56.67 4.84003V4.84003L56.21 4.70003L55.84 4.60003H55.72C52.1899 3.61789 48.5441 3.1134 44.88 3.10003H44.75C36.7557 3.06445 28.9203 5.33141 22.18 9.63003C18.6511 11.9015 15.4798 14.6853 12.77 17.89C11.98 18.79 11.23 19.72 10.54 20.68C5.69007 27.5085 2.98497 35.6273 2.77 44V44.11C2.77 44.49 2.77 44.82 2.77 45.11C2.78047 50.6169 3.87717 56.0676 5.99729 61.1501C8.11741 66.2325 11.2193 70.8468 15.1253 74.7286C19.0313 78.6105 23.6648 81.6837 28.7602 83.7723C33.8557 85.8608 39.3132 86.9237 44.82 86.9H44.88C53.6606 86.8987 62.2119 84.0961 69.29 78.9C74.1161 75.4086 78.1397 70.9254 81.0907 65.7512C84.0418 60.577 85.852 54.8314 86.4 48.9C86.52 47.58 86.58 46.3 86.58 45.11V44.94C86.5738 39.749 85.6005 34.6046 83.71 29.77V29.75ZM43.31 5.11003C43.4379 4.95207 43.582 4.80795 43.74 4.68003L43.95 4.50003C44.042 4.40751 44.1424 4.32381 44.25 4.25003V4.25003L43.88 43.77C43.8822 43.8275 43.8646 43.884 43.83 43.93C43.8206 43.9345 43.8104 43.9368 43.8 43.9368C43.7896 43.9368 43.7794 43.9345 43.77 43.93C43.7257 43.9265 43.6837 43.909 43.65 43.88C42.43 43 39.77 41 39.53 40.67C39.3305 40.3774 39.2484 40.0204 39.3 39.67V39.67C39.3 39.05 40.67 27.54 43.16 6.37003C43.25 5.58003 43.3 5.16003 43.31 5.11003ZM4.93 45C4.93115 34.7546 8.89018 24.9057 15.9804 17.5099C23.0706 10.1141 32.7437 5.74326 42.98 5.31003V5.31003L42.21 10.7L37.88 40.85C37.8582 40.9872 37.7871 41.1116 37.68 41.2L9.45 63.4C6.48559 57.7194 4.93508 51.4076 4.93 45V45ZM86.17 48V48.32C86.17 48.42 86.17 48.52 86.17 48.62C86.17 48.72 86.17 48.73 86.17 48.79C85.3204 58.447 81.0675 67.488 74.17 74.3V74.3C72.6351 75.8394 70.9798 77.2538 69.22 78.53C66.8901 80.2171 64.3978 81.6676 61.78 82.86L61.62 82.93L61.14 83.14L60.81 83.29L60.48 83.42L60 83.62L59.8 83.7L59.2 83.93H59.1L58.41 84.18C57.66 84.44 56.9 84.68 56.13 84.91L55.38 85.11H55.32L54.65 85.28H54.48L53.91 85.41L53.6 85.48L53.18 85.57L52.68 85.67H52.46C50.0138 86.1338 47.5297 86.3681 45.04 86.37C39.4865 86.4113 33.9823 85.3261 28.86 83.18C23.8505 81.1846 19.2734 78.2407 15.38 74.51V74.51C11.7406 70.8658 8.78985 66.5938 6.67 61.9V61.9C6.76 61.9 6.84 62.03 6.9 62.13C10.07 68.5288 14.8976 73.9607 20.88 77.86C26.9769 81.8097 33.9817 84.1365 41.23 84.62C41.79 84.62 42.35 84.68 42.81 84.69C39.2429 84.5324 35.7138 83.8898 32.32 82.78H32.25L31.49 82.52H31.36L30.66 82.26L30.47 82.19L29.88 81.88L29.67 81.79L29.04 81.53L28.82 81.43L28.19 81.15L27.98 81.06L27.32 80.74L27.16 80.67L26.43 80.3H26.35C22.7511 78.42 19.46 76.0022 16.59 73.13C15.3645 71.8848 14.2125 70.5692 13.14 69.19C12.14 67.83 11.31 66.62 11.14 66.39C10.4324 66.2724 9.77123 65.9608 9.23 65.49V65.35C9.23 65.35 9.23 65.35 43.52 45.23H43.58L43.69 45.16C43.8 45.1 43.84 45.03 43.84 44.96C43.84 44.89 43.84 44.84 43.71 44.77L43.56 44.68L40.56 42.79C40.56 42.79 39.63 42.22 39.19 41.92L38.97 41.79H39.03C39.33 42.03 40.81 43.09 43.11 44.71C43.1313 44.7245 43.1487 44.7438 43.1609 44.7665C43.1731 44.7891 43.1796 44.8143 43.18 44.84C43.18 44.93 43.05 45 43.01 45.02L42.81 45.14L9.23 65C9.22462 64.9268 9.22462 64.8533 9.23 64.78C9.25373 64.4395 9.32094 64.1035 9.43 63.78L38.94 41.62C39.5316 41.883 40.1091 42.1768 40.67 42.5L43.97 44.21C44.0329 44.2203 44.0971 44.2203 44.16 44.21H44.22C44.2472 44.1808 44.2676 44.1459 44.2797 44.1079C44.2918 44.0698 44.2953 44.0296 44.29 43.99V43.79L44.52 4.02003H44.6L44.75 4.10003C45.3638 4.3846 45.9119 4.79317 46.36 5.30003V5.30003C56.2986 5.71442 65.7167 9.85584 72.74 16.9C74.416 18.5766 75.9419 20.3969 77.3 22.34C79.9359 26.1234 81.8856 30.341 83.06 34.8C83.6857 37.1577 84.0941 39.5678 84.28 42C84.4258 43.0986 84.7114 44.1739 85.13 45.2C85.3726 45.7944 85.6601 46.3694 85.99 46.92C86.1172 47.1101 86.1899 47.3315 86.2 47.56C86.19 47.69 86.18 47.87 86.17 48V48ZM51.45 41.09C51.45 41.09 51.36 40.98 51.34 40.79L46.34 5.41003C45.899 4.97111 45.3562 4.64817 44.76 4.47003V5.47003L44.98 44.09C44.9669 44.1324 44.9669 44.1777 44.98 44.22H45.09L45.24 44.16L45.35 44.11L48.48 42.49C49.0709 42.1651 49.6784 41.8714 50.3 41.61V41.61L57.18 46.8L79.58 63.66C79.7675 64.0078 79.8703 64.395 79.88 64.79L71.63 59.91L46.25 45C46.2139 44.9848 46.1852 44.9561 46.17 44.92C46.1591 44.9097 46.1504 44.8973 46.1445 44.8836C46.1386 44.8698 46.1355 44.855 46.1355 44.84C46.1355 44.825 46.1386 44.8102 46.1445 44.7965C46.1504 44.7827 46.1591 44.7703 46.17 44.76C47.52 43.83 50.02 42.11 50.35 41.84L48.88 42.71L45.59 44.71C45.54 44.76 45.51 44.8 45.51 44.84C45.5053 44.8598 45.5053 44.8803 45.51 44.9V44.9H45.57L45.63 44.95H45.71L80.12 65.32V65.12C80.1688 64.5393 80.0868 63.9549 79.88 63.41L51.45 41.09ZM76.36 13.3C73.0654 9.99273 69.2727 7.22243 65.12 5.09003C68.3856 6.84197 71.394 9.03598 74.06 11.61V11.61C74.34 11.88 74.62 12.16 74.89 12.44L74.95 12.5C75.21 12.76 75.46 13.03 75.7 13.29L75.81 13.41C76.05 13.66 76.27 13.92 76.5 14.17L76.64 14.33L77.27 15.08L77.43 15.28C77.63 15.52 77.83 15.77 78.02 16.02L78.19 16.23L78.75 16.98C78.81 17.06 78.87 17.13 78.92 17.21C79.1 17.46 79.29 17.72 79.46 17.98C79.5189 18.0491 79.5724 18.1227 79.62 18.2C79.8 18.46 79.98 18.73 80.15 19L80.29 19.21C80.47 19.49 80.65 19.77 80.82 20.06L80.93 20.23L81.47 21.16L81.54 21.27C81.73 21.61 81.92 21.95 82.1 22.27C84.2911 26.4099 85.8452 30.8566 86.71 35.46C86.71 35.75 86.71 35.91 86.71 35.95C86.59 35.37 86.45 34.79 86.31 34.21L86.25 34C86.2 33.8 86.15 33.6 86.09 33.4C83.5602 24.3699 78.1477 16.4144 70.6772 10.7456C63.2067 5.07683 54.0878 2.00565 44.71 2.00003C39.5079 1.99441 34.3467 2.91896 29.47 4.73003C26.3907 5.90558 23.4525 7.42166 20.71 9.25003C18.1765 10.9396 15.83 12.8939 13.71 15.08C10.3372 18.6012 7.5699 22.6559 5.52 27.08C3.72401 31.0492 2.53731 35.2667 2 39.59C1.9 40.35 1.86 40.68 1.81 41.28C1.81 41.39 1.81 41.65 1.81 41.65C1.75925 42.0029 1.64038 42.3425 1.46 42.65V42.65C1.4 42.75 1.33 42.87 1.26 43.01C0.576303 44.2455 0.147822 45.6058 0 47.01C0 47.01 0 47.42 0 48.13C0.791558 59.4397 5.83883 70.0295 14.1255 77.7669C22.4121 85.5043 33.3226 89.8147 44.66 89.83C53.5267 89.8302 62.1942 87.201 69.5666 82.2751C76.939 77.3491 82.6851 70.3475 86.0783 62.1558C89.4714 53.9641 90.3592 44.9502 88.6294 36.2539C86.8995 27.5576 82.6298 19.5696 76.36 13.3V13.3ZM74.88 75.13C70.9287 79.0977 66.2339 82.2475 61.0641 84.3991C55.8944 86.5508 50.3512 87.6621 44.7516 87.6696C39.152 87.677 33.6058 86.5804 28.4304 84.4424C23.255 82.3045 18.5518 79.1672 14.59 75.21C10.6768 71.3165 7.54986 66.7059 5.38 61.63C3.12537 56.3759 1.9651 50.7175 1.97 45C1.95941 39.3888 3.06034 33.8311 5.20922 28.6477C7.35811 23.4643 10.5124 18.7578 14.49 14.8C18.5831 10.726 23.4481 7.50987 28.8 5.34003C35.278 2.73856 42.2957 1.76736 49.2368 2.51172C56.1778 3.25608 62.83 5.69323 68.6091 9.60916C74.3882 13.5251 79.1174 18.8 82.3816 24.9707C85.6458 31.1414 87.345 38.0192 87.33 45C87.3532 50.5964 86.2646 56.1416 84.1274 61.3139C81.9901 66.4861 78.8469 71.1824 74.88 75.13V75.13Z" fill="#1D1D1B"/>
</svg>
