<svg xmlns="http://www.w3.org/2000/svg" viewBox="0 0 200 200"><defs><style>.a{fill:#ffd600;}.b{fill:#ea0029;}</style></defs><circle class="a" cx="99.87" cy="100" r="37.97"/><path class="a" d="M199.47,125.43v0l-.14-.3c0-.2-.07-.44-.1-.68v0a6.64,6.64,0,0,0-.41-1.82,3.23,3.23,0,0,0-2.31-1.82,2.51,2.51,0,0,0-.36-.88,8.25,8.25,0,0,0-2.29-2c-.2-.13-.42-.28-.5-.35l-.19-.15a2.6,2.6,0,0,0-1.63-.56,3.67,3.67,0,0,0-2.68,1.42c-.11-.28-.29-1-.39-1.34s-.28-1-.42-1.4l0,0a.64.64,0,0,0-.06-.16,3.64,3.64,0,0,0-2.7-2.65,12.53,12.53,0,0,0-1.43-.12,3.12,3.12,0,0,1-1.35-.25,2.45,2.45,0,0,1,.15-.4,8.49,8.49,0,0,0,.37-1.11,10.93,10.93,0,0,0,.34-4.73,10,10,0,0,0,1.38.1,11.42,11.42,0,0,0,4.45-.91l.07,0c2.7-1.31,5.35-4.31,5.21-8.06V97c-.31-3.24-2.12-6.31-5.51-9.34a8.24,8.24,0,0,0,2.68-1.12c2.45-1.65,3.51-4.59,2.9-8.09l-.05-.23a2.14,2.14,0,0,0-2.1-1.93,2.11,2.11,0,0,0-1.44.57l-.25.24a4,4,0,0,1-.63.53,7.25,7.25,0,0,1-2.1.64,15.27,15.27,0,0,0-2,.5c-3,1-5,2.68-5.7,4.87a5.54,5.54,0,0,0,.54,4.39l.06.11A21.69,21.69,0,0,0,184.28,92c1.64,1.57,3.19,3,3.5,4.83.06.32.16.92-.93,1.74a3.48,3.48,0,0,1-1.68.37,6.35,6.35,0,0,1-2.89-.73l-.05,0a38.61,38.61,0,0,1-4-2.45A28.24,28.24,0,0,0,171.41,92a17.17,17.17,0,0,0-3.5-1,8.63,8.63,0,0,1-3.64-1.28l-.13-.09c-.4-.26-.82-.56-1.22-.86a13.35,13.35,0,0,0-4.28-2.32,9.94,9.94,0,0,0-1.74-.37,2.88,2.88,0,0,1-1.27-.34c-.28-.19-.55-.39-.82-.59l0,0a26.42,26.42,0,0,0-3.58-2.33,27.44,27.44,0,0,0-6.65-2.1c-.13,0-.45-.42-.67-.68a7.11,7.11,0,0,0-1.4-1.4A10.32,10.32,0,0,0,136,76l-.71,0a7.07,7.07,0,0,0-3.93,2c-2,1.74-4.16,3.31-6.26,4.83a60.91,60.91,0,0,0-9.54,8c-3.08,3.18-4.19,7.14-5.18,10.63-.14.5-.28,1-.44,1.53-.27,1-.51,1.95-.75,2.9-1.2,4.85-2.34,9.43-6.87,12.37a2.25,2.25,0,0,0-1,2.14,2.3,2.3,0,0,0,1.48,1.9,5.3,5.3,0,0,0,1.74.28,2.16,2.16,0,0,0,.54,1.34,2.57,2.57,0,0,0,2,.86h.08c3.12,0,5.34-1.8,7.26-3.65a5.88,5.88,0,0,0,2.67,1.46l.31.06.35,0a17.31,17.31,0,0,1,3.12-.24c.92.29,1.85.64,2.79,1,.71.27,1.45.55,2.2.8l.37.12h.33c2-.08,3.18-1.88,3.62-2.56l.08-.13.06-.14a3.85,3.85,0,0,0,.16-.48h0l.12.43a6.94,6.94,0,0,0,1.16,2.66,2.91,2.91,0,0,0,2.27,1h0a4.94,4.94,0,0,0,.86-.08h.1l.09.1a4.05,4.05,0,0,0,1.78,1.23c.83.28,1.67.5,2.49.71a25.42,25.42,0,0,1,3,.9l.1,0a7.2,7.2,0,0,0,2.39.45,4.15,4.15,0,0,0,2.83-1.07,5.1,5.1,0,0,0,1.83-2.86,3.48,3.48,0,0,0,.61-.16c1.39-.46,2.75-3,2.76-3,.1-.19.21-.36.3-.51a2.77,2.77,0,0,0,.51-1.62,2.44,2.44,0,0,0-2.4-2.42h-.22c-.11,0-2.72,0-3.47,0h-.07a3.51,3.51,0,0,0-.89.18l-.05-.07c-.2-.24-.42-.8-.7-1a.47.47,0,0,0,.1,0l.73.08a13.37,13.37,0,0,0,1.42.07,25.79,25.79,0,0,0,4.63-.53,21,21,0,0,1,3.88-.11H157c.56,0,1.12,0,1.73.1s1.29.12,2,.12l.74,0a7.7,7.7,0,0,0,1.91-.34c0,.32.13.72.22,1.22l.1.41a7.7,7.7,0,0,0,3.47,5.37l.39.26a8,8,0,0,0,3.77,1.55,6.11,6.11,0,0,0,1.89-.08,8.72,8.72,0,0,1,6.89,1.59l.18.12a3.61,3.61,0,0,1,.62.48,6.27,6.27,0,0,0,1.85,1.18,4.54,4.54,0,0,0,1.66.32h0a4,4,0,0,0,2.19-.6h0l.22.3a9.6,9.6,0,0,0,1.3,1.55,4.75,4.75,0,0,0,3.43,1.18c.44,0,.86,0,1.24-.06l.42,0,.66-.05a4.66,4.66,0,0,0,.55-.09,2.17,2.17,0,0,0,1.23.4,2.25,2.25,0,0,0,.58-.08l2.18-.72a2.19,2.19,0,0,0,1.36-1.2A3.22,3.22,0,0,0,199.47,125.43ZM131,114.65l-.17-.25c-.07-.1-.14-.2-.22-.33a7.15,7.15,0,0,1-.74-1.27c.65.06,1.34.13,2.06.16Z"/><path class="a" d="M98.67,117.51l-1.14-.57a7.9,7.9,0,0,1-2.34-2.87c-.33-.55-.67-1.12-1-1.65a8,8,0,0,0-1.26-1.32l-.24-.22a43,43,0,0,1-2.84-11.56,11.64,11.64,0,0,0-1.38-4.06l0,0a86.13,86.13,0,0,0-6.73-8.71c-.17-.18-.35-.36-.52-.52L81,85.87l-8-6.7-.12-.09a12.29,12.29,0,0,0-3.63-1.94,10.31,10.31,0,0,0-7,.24l-.14.07c-.69.37-1.34.78-2,1.18a13.25,13.25,0,0,1-2.79,1.51l-.17.06a22.07,22.07,0,0,1-2.56.91A14.37,14.37,0,0,0,48.71,84l-1.09,1c-.43.41-.84.79-1,.91h-.35a11,11,0,0,0-7.49,2.6l-.08.07a13.06,13.06,0,0,1-4.12,2.88,9.77,9.77,0,0,1-2.12.37h-.08a14.51,14.51,0,0,0-2.95.46c-2.29.53-4.51,2.25-6.29,3.64-.79.61-1.3,1-1.52,1.14l-.51.31c-2,1.15-3.65,2.14-5.69,2.14h-.1a3,3,0,0,1-2.52-1.87,3.71,3.71,0,0,1,1.12-3.64c.68-.68,1.48-1.37,2.26-2a22.73,22.73,0,0,0,3.66-3.6,5.83,5.83,0,0,0-.35-7.13c-1.32-1.45-3.61-2.16-5.45-2.61l-.15,0-.34-.06-.1,0-.62-.11-1-.2a7.54,7.54,0,0,1-2-1.1,14.7,14.7,0,0,0-1.55-1l-1.5-.81-.93,1.43A5.78,5.78,0,0,0,5,80.47v.1a8.65,8.65,0,0,0,4.78,6.3l.06,0,.26.11a5.46,5.46,0,0,0,1.64.38,28.77,28.77,0,0,0-3.8,3.7c-2.25,2.49-2.39,6.52-1.35,9.22a9.79,9.79,0,0,0,7.84,5.9,10.09,10.09,0,0,0,1.57.12,13.36,13.36,0,0,0,2.65-.29v0a24.82,24.82,0,0,0,.21,2.69,18,18,0,0,0,1,3.16l0,.08a9.59,9.59,0,0,1-2,.91c-.52.06-1.09.09-1.51.11l-.63,0a2.86,2.86,0,0,0-1.64.77,7.76,7.76,0,0,0-1.39,2.65c-.19.49-.38,1-.57,1.4a2.76,2.76,0,0,1-.63.65,4.59,4.59,0,0,0-1.18-1.27h0l0,0a2.63,2.63,0,0,0-3.05-.06l-.41.28-.11.07a20.94,20.94,0,0,0-1.94,1.41,3,3,0,0,0-.95,1.61,1.69,1.69,0,0,0-.49.13,4.11,4.11,0,0,0-2.44,3,13,13,0,0,1-.16,1.57l-.11.13a2.41,2.41,0,0,0,0,3.27A8.93,8.93,0,0,0,4.25,130h.12l.31,0,.14,0a1.6,1.6,0,0,0,.42-.17l.58,0a8.39,8.39,0,0,1,1.07.2,10.43,10.43,0,0,0,2.19.3,4.89,4.89,0,0,0,2.33-.56,5.57,5.57,0,0,0,2.33-2.46,7.16,7.16,0,0,1,.4-.64l.2.05a5.72,5.72,0,0,0,1.24.23,7.22,7.22,0,0,0,4.66-1.72c.35-.27.67-.58,1-.85a9.79,9.79,0,0,1,1-.84,3.43,3.43,0,0,1,1.24-.19,15.7,15.7,0,0,1,2.69.34,7,7,0,0,0,5.1-.57c.77-.44,1.55-.84,2.17-1.17l.11-.06c.34-.18.64-.33.88-.47a9,9,0,0,0,3.21-3.85c.33-.64.82-1.85,1-2.18H39a18.31,18.31,0,0,0,2.82-.3c.6-.09,1.17-.18,1.61-.2h.07l.53,0a31,31,0,0,1,3.1.21c.8.09,1.34.16,2.39.21l.46,0c.33,0,.71,0,1.12,0a5.94,5.94,0,0,0,2.66-.6c.21.19.54.67.77.86h-.1a2.39,2.39,0,0,0-1.75.74,5.28,5.28,0,0,0-2.48-.21,22.21,22.21,0,0,0-3.09.47,2.2,2.2,0,0,0-1.7,1.28,2.6,2.6,0,0,0,.12,2.35c.55,1,1.08,1.87,1.65,2.81l.24.41a2.44,2.44,0,0,0,2.24,1.16l.55,0h.06l.1.19a7.44,7.44,0,0,0,1.8,2.34,5.5,5.5,0,0,0,5.08,1,44.63,44.63,0,0,0,7.12-2.73h.49l.46,0a4.86,4.86,0,0,0,3.41-1.3l.1-.11.08-.12c.42-.61.81-1.23,1.17-1.85l.06.22,0,.05a3.69,3.69,0,0,0,3.58,2.32h.08a13.73,13.73,0,0,0,4.16-1l.08,0,.51-.18.12-.05a7.19,7.19,0,0,1,3.86-.2l.21,0h.21A7.15,7.15,0,0,0,87,121.22a10.26,10.26,0,0,0,7.73,3.26h.35l.5,0,.14,0a2.22,2.22,0,0,0,1.78-2,2.16,2.16,0,0,0,0-.57l.55-.1a2.28,2.28,0,0,0,1.8-1.88A2.15,2.15,0,0,0,98.67,117.51Zm-26.61-5.12-.27.25a10.5,10.5,0,0,0-1.66,1.8c-.36-.6-.6-1-.8-1.46a9.26,9.26,0,0,0,2.32-.66l.43,0S72.07,112.36,72.06,112.39Z"/><path class="b" d="M4.17,122.35H4.06a2.41,2.41,0,0,0-1.29,1.46c-.15,2-.21,2.19-.75,2.79-.15.17-.25.56-.08.74a12.28,12.28,0,0,0,2.31.77h0c.17-.05.31-.5.71-1.86.21-.74.45-1.57.72-2.33,0,0,0-.12-.16-.37S4.59,122.35,4.17,122.35Zm2.15,0a1.15,1.15,0,0,0,.73.29,1.46,1.46,0,0,0,.61-.16,7.67,7.67,0,0,0,2.28-2.72c.12-.33-.25-.63-.73-1l-.06,0a.77.77,0,0,0-.85,0l-.53.36A20.65,20.65,0,0,0,6,120.34a1.29,1.29,0,0,0-.37.82.71.71,0,0,0,.11.51S6.23,122.23,6.32,122.31Zm91.52-3.15-1.2-.6a9.19,9.19,0,0,1-3-3.54c-.31-.52-.63-1.06-1-1.55a6,6,0,0,0-1-1,3,3,0,0,1-.64-.67,45.23,45.23,0,0,1-3-12.35,9.93,9.93,0,0,0-1.14-3.27,86.51,86.51,0,0,0-6.5-8.41c-.15-.16-.32-.33-.47-.47l-.12-.12-7.94-6.6a10.85,10.85,0,0,0-3.2-1.72,7.58,7.58,0,0,0-2.5-.4,8.11,8.11,0,0,0-3.17.61c-.63.33-1.25.73-1.85,1.11a14.67,14.67,0,0,1-3.2,1.7,25.33,25.33,0,0,1-2.77,1A12.79,12.79,0,0,0,50,85.36c-.43.39-.78.73-1.07,1-1.37,1.29-1.51,1.42-2.63,1.42A9.11,9.11,0,0,0,39.94,90a14.78,14.78,0,0,1-4.76,3.26,11.28,11.28,0,0,1-2.57.46,13.92,13.92,0,0,0-2.77.43c-1.89.43-3.89,2-5.58,3.3-.55.43-1.29,1-1.64,1.23L22,99c-2.1,1.23-4.09,2.39-6.63,2.39h-.18A4.86,4.86,0,0,1,11,98.23a5.55,5.55,0,0,1,1.58-5.49c.73-.73,1.56-1.44,2.37-2.13a21.67,21.67,0,0,0,3.38-3.29,4,4,0,0,0-.23-4.79c-1.11-1.22-3.6-1.82-4.53-2l-.16,0c-.09,0-.26,0-.35-.07-.59-.11-1.15-.19-1.73-.34-1.48-.4-2.62-1.54-3.93-2.24a4,4,0,0,0-.6,2.55,6.77,6.77,0,0,0,3.71,4.85l.23.09a4.36,4.36,0,0,0,1.76.28h.73a4.71,4.71,0,0,1,1.16.1,1.08,1.08,0,0,1,.77.89c0,.26-.09.46-.42.72l-.93.77a31.81,31.81,0,0,0-4.51,4.26c-1.76,1.91-1.84,5.22-1,7.37a7.9,7.9,0,0,0,6.37,4.71,8.08,8.08,0,0,0,1.31.1,16.65,16.65,0,0,0,4.08-.67l.13,0c.06,0,.17,0,.19.3,0,.59.07,1.25.1,1.89.05,1,.09,2,.17,2.45a17.34,17.34,0,0,0,.94,2.8c.13.31.23.56.27.69a1.13,1.13,0,0,1-.28,1.14,9.21,9.21,0,0,1-3.38,1.68c-.6.08-1.24.11-1.7.14l-.52,0a1,1,0,0,0-.56.26,7.6,7.6,0,0,0-.95,2c-.22.55-.45,1.13-.67,1.6A7,7,0,0,1,11.07,121c-.25.15-.51.29-.76.45l0,0a7.85,7.85,0,0,1-1.39,1.79,2.47,2.47,0,0,1-1.48.54h0l0,0A7.16,7.16,0,0,0,6,127.2c0,.18-.07.36-.11.54l0,.17H6a10.64,10.64,0,0,1,1.29.23,8.5,8.5,0,0,0,1.8.26,3,3,0,0,0,1.49-.36,3.73,3.73,0,0,0,1.57-1.74,5.45,5.45,0,0,1,.91-1.27,1,1,0,0,1,.81-.35,4.14,4.14,0,0,1,1,.17,4.65,4.65,0,0,0,.87.18,5.48,5.48,0,0,0,3.42-1.33c.28-.23.57-.49.84-.75a9.33,9.33,0,0,1,1.35-1.12,4.94,4.94,0,0,1,2.13-.4,17.18,17.18,0,0,1,3.09.38A6.18,6.18,0,0,0,28,122a4.75,4.75,0,0,0,2.32-.57c.79-.45,1.58-.86,2.22-1.2.37-.19.7-.36,1-.51a7.71,7.71,0,0,0,2.45-3.06c.34-.66.91-2.1.92-2.11l0-.07-1.32-1,0,.09a20.31,20.31,0,0,1-1.44,2.1c-2.32,3.18-6.12,3.58-9.16,3.58h-.63a11.55,11.55,0,0,0-9,3.76.24.24,0,0,1-.36,0,.34.34,0,0,1,0-.27,1.88,1.88,0,0,1,.25-.63c2.36-3.35,6.39-3.84,9.64-3.9a14.18,14.18,0,0,0,5.66-1.35,8.86,8.86,0,0,0,4-4.92,20.5,20.5,0,0,0,.73-3.53,27.51,27.51,0,0,1,.52-2.79.28.28,0,0,1,.27-.19.22.22,0,0,1,.1,0c.12,0,.35.11.35.29-.32,1.84-.77,4.36.07,6.47.39.83,1.23,1.24,2.56,1.24a17.43,17.43,0,0,0,2.53-.27,14.69,14.69,0,0,1,1.81-.23q.33,0,.69,0a16.22,16.22,0,0,1,3.06.4,16.52,16.52,0,0,0,2.67.4l.51,0c.32,0,.65,0,1,0a2.6,2.6,0,0,0,1.72-.48c.28-.23.18-.57.06-1l0-.08c0-.07,0-.15-.07-.24-.18-.57-.44-1.43,0-1.83a.44.44,0,0,1,.25-.08.2.2,0,0,1,.21.14c0,.16.1.33.14.49a6.37,6.37,0,0,0,.84,2A12.83,12.83,0,0,0,58.46,116a5.48,5.48,0,0,1,2.64,4c0,.84-.81,1.43-1.42,1.79a8.35,8.35,0,0,1-3.36,1,2.11,2.11,0,0,1-1.15-.45c-.93-.85-.83-1.14-1.43-2.16a12,12,0,0,0-1.08-1.59,2.57,2.57,0,0,0-2.29-.81,22.76,22.76,0,0,0-2.86.48.63.63,0,0,0-.47.36.75.75,0,0,0,.06.68c.53,1,1.06,1.84,1.61,2.77l.25.42a.72.72,0,0,0,.65.25l.41,0,.47,0a1.13,1.13,0,0,1,1,.36c.17.25.32.53.47.79a5.43,5.43,0,0,0,1.36,1.81,3.44,3.44,0,0,0,2.25.79,3.66,3.66,0,0,0,1.1-.16,40.64,40.64,0,0,0,7.22-2.82h.75l.51,0a3.14,3.14,0,0,0,2.21-.74,24.3,24.3,0,0,0,1.92-3.29,2.82,2.82,0,0,0,0-2.8A19.62,19.62,0,0,1,67,112l0,0h-.05a5.27,5.27,0,0,1-.51-.19,3.15,3.15,0,0,0-1.17-.29h0a1.07,1.07,0,0,0-1,.46l0,0,2.66,5.26a2.41,2.41,0,0,1,.27,1.44,9,9,0,0,1-1.81,2.93.4.4,0,0,1-.23.1s-.17,0-.08-.34a14,14,0,0,0,.48-3.5,33.73,33.73,0,0,0-2.42-4.6l0-.06a3.28,3.28,0,0,1-.67-1.83.73.73,0,0,1,.5-.61,6.79,6.79,0,0,1,1.16-.29c.94-.21,1.92-.43,2.27-1a14.26,14.26,0,0,0,2.13-5.66c0-.1.09-.3.24-.3s.17,0,.21.23a8.5,8.5,0,0,1-1.46,6.39.75.75,0,0,0-.1.51.68.68,0,0,0,.25.34c.51.35,2.38.15,3.73-.56a14.2,14.2,0,0,0,3-.34l.89-.16a.37.37,0,0,1,.18.2,6.44,6.44,0,0,0-1.52,3.17c-.22.23-.47.45-.71.67-.87.79-1.8,1.68-1.85,2.82a.42.42,0,0,0,.42.44,1.08,1.08,0,0,0,.44-.12,1,1,0,0,1,.46-.12.31.31,0,0,1,.26.28l-1,1.45a2.32,2.32,0,0,0-.07,1.88c.11.34.06.61.16.92a1.91,1.91,0,0,0,1.83,1.06,12,12,0,0,0,3.61-.89l.61-.22a8.91,8.91,0,0,1,4.89-.33c1.6-.1,2.79-1.15,4-2.17a2.32,2.32,0,0,1,1.54.87,8.36,8.36,0,0,0,6.45,2.75H95l.27,0c.27-.06.34-.19.36-.36s-.14-.41-.44-.55l-1.46-.78c-1.18-.75-2.46-1.64-2.81-2.83a15.17,15.17,0,0,0-1.62-3.4c-.1-.17-.22-.34-.34-.51a6.45,6.45,0,0,1-.57-.93h0C90,113.81,90.93,115,92,117A6.23,6.23,0,0,0,96.88,120a3.77,3.77,0,0,0,.76-.08.46.46,0,0,0,.38-.36A.36.36,0,0,0,97.84,119.16ZM69.27,95.5c0,.15-.14.26-.24.26s-.16,0-.2-.23a16.42,16.42,0,0,0-1.15-4.14,5.41,5.41,0,0,0-.52-.81c-.36-.49-.66-.91-.32-1.48a.75.75,0,0,1,.64-.28.91.91,0,0,1,.37.08,3.13,3.13,0,0,1,1.22,1.52C70.09,92.51,69.28,95.47,69.27,95.5Zm13.35,21.15a1.6,1.6,0,0,1-.34.86,3.65,3.65,0,0,1-1.83.38c-.53,0-.71-.1-.82-.26s.07-.54.07-.54a3.43,3.43,0,0,1,1.94-1.77,1.13,1.13,0,0,1,.79.05C82.82,115.56,82.64,116.52,82.62,116.65Zm3.64-8.35a2.61,2.61,0,0,1-.26.85.61.61,0,0,1-.55.38c-.4,0-.37-.47-.37-.54a7,7,0,0,0-.3-1.85c-.27-.6-1.58-2.29-2.34-2.22a2.19,2.19,0,0,0-1,.8c-.45.57-.45.64-.58.73s-.32,0-.38-.3a2.51,2.51,0,0,1,0-1.27,6.43,6.43,0,0,1,.51-1.26s.39-.91.54-1.14a1.14,1.14,0,0,1,1-.58,1.28,1.28,0,0,1,1.11.58,4.15,4.15,0,0,1,.63.93,6.74,6.74,0,0,0,.81,1,5.87,5.87,0,0,1,1.17,2.18A4.51,4.51,0,0,1,86.26,108.3ZM54.82,119a7.19,7.19,0,0,1,.6,1.15c.3.66.55,1.23.86,1.33a1.4,1.4,0,0,0,.43.06,4.27,4.27,0,0,0,2.34-.92c.39-.33.26-.54.09-.84a2.45,2.45,0,0,1-.18-.33,5.39,5.39,0,0,1-.39-1.07c-.19-.67-.35-1.24-1.07-1.14a21,21,0,0,1-3.12.22s-.36,0-.47.24.16.54.45.81A2.65,2.65,0,0,1,54.82,119Z"/><path class="b" d="M197.79,126.21a4.53,4.53,0,0,1-.26-.64c-.06-.3-.1-.62-.14-.93a5.35,5.35,0,0,0-.28-1.34,1.36,1.36,0,0,0-1.2-.77,1,1,0,0,0-.49.12c-.75.37-1.19.77-1.07,1.61a29.48,29.48,0,0,1,.88,3.31c0,.18.16.78.45.78h.06l2.15-.7a.35.35,0,0,0,.22-.19C198.24,127.16,198,126.68,197.79,126.21Zm-3.17-5.29a6.52,6.52,0,0,0-1.79-1.52,5.81,5.81,0,0,1-.68-.49l-.13-.09a.78.78,0,0,0-.49-.18,1.84,1.84,0,0,0-1.43,1.1c0,.41.56,1.14,1.32,2l.17.2a1.84,1.84,0,0,0,1.24.74h0a1.59,1.59,0,0,0,1.17-.5C194.28,122,194.89,121.32,194.62,120.92Zm-50.25-3.12a7.85,7.85,0,0,1-1.17.08h-.6l-.45,0a3.16,3.16,0,0,0-.64.06h0l0,0a4.76,4.76,0,0,0-.68,2.2c.1.9,1,1.08,1.71,1.22a4.27,4.27,0,0,0,.83.11,1,1,0,0,0,1-.5,12.44,12.44,0,0,0,.77-2.76.29.29,0,0,0,0-.26.69.69,0,0,0-.49-.17Zm48.56,6.31,0-.06h-.07c-1.24.07-2-.93-2.75-1.9a11.14,11.14,0,0,0-.72-.89,12.65,12.65,0,0,0-1.19-1.15,4,4,0,0,1-1-1,11.72,11.72,0,0,1-.55-1.74c-.14-.49-.26-1-.37-1.26,0-.06-.05-.13-.08-.2-.22-.59-.5-1.34-1.27-1.47a9.71,9.71,0,0,0-1.21-.09,3.54,3.54,0,0,1-2.82-1,2,2,0,0,1,0-2.15,6.78,6.78,0,0,0,.3-.9,8.59,8.59,0,0,0,.23-4.21c0-.19-.11-.37-.17-.56a3.06,3.06,0,0,1-.23-1.46.44.44,0,0,1,.48-.26,2.49,2.49,0,0,1,.63.12l.41.1a9.48,9.48,0,0,0,2.15.29,9.63,9.63,0,0,0,3.72-.76,7.11,7.11,0,0,0,4.17-6.33c-.28-3-2.11-5.81-5.59-8.73l-.27-.22c-.45-.38-1-.85-1-1.27s1.07-.67,1.76-.83l.42-.1.17,0a7.63,7.63,0,0,0,2.5-1c2.48-1.67,2.39-4.61,2.11-6.23,0,0,0-.1,0-.16,0-.21-.11-.47-.3-.47a.3.3,0,0,0-.19.09,2.13,2.13,0,0,0-.22.21,5.72,5.72,0,0,1-1,.78,8.84,8.84,0,0,1-2.65.85,14.47,14.47,0,0,0-1.75.45c-2.47.85-4,2.1-4.55,3.71a3.72,3.72,0,0,0,.41,2.92,19.59,19.59,0,0,0,3.11,3.48c1.78,1.71,3.62,3.47,4.05,5.86a3.55,3.55,0,0,1-1.73,3.59,5.26,5.26,0,0,1-2.71.68,8.29,8.29,0,0,1-3.77-1,40.12,40.12,0,0,1-4.19-2.56,26.28,26.28,0,0,0-6.46-3.5,14.89,14.89,0,0,0-3.21-.91,10.09,10.09,0,0,1-4.41-1.63c-.44-.29-.87-.6-1.3-.91a11.49,11.49,0,0,0-3.71-2,8.32,8.32,0,0,0-1.48-.31,4.45,4.45,0,0,1-2.09-.67l-.88-.63a24.4,24.4,0,0,0-3.31-2.17,26.1,26.1,0,0,0-6.25-2,3.17,3.17,0,0,1-1.66-1.31,5.52,5.52,0,0,0-1.08-1.08c-1.76-1.4-3.36-2.33-5.41-2.33a5.49,5.49,0,0,0-.58,0,5.37,5.37,0,0,0-2.84,1.5c-2,1.8-4.26,3.4-6.4,4.94A58.51,58.51,0,0,0,116.86,92c-2.76,2.85-3.77,6.42-4.74,9.86-.14.51-.29,1-.44,1.53-.26.94-.5,1.91-.73,2.85-1.27,5.09-2.58,10.17-7.67,13.47a.42.42,0,0,0,.1.76,4.2,4.2,0,0,0,4.39-1.37c1.33-1.55,2-3,3.53-4.7.06,0,.24-.22.38-.18s.15.1.1.28a5.77,5.77,0,0,1-1,1.8,6.67,6.67,0,0,0-1,1.85,9.44,9.44,0,0,1-3.06,3.68,1.6,1.6,0,0,0-.3.27c-.11.13-.11.2-.11.2,0,.32.23.52.74.54h0c2.85,0,4.88-2,6.83-4a.46.46,0,0,1,.33-.12.52.52,0,0,1,.31,0,4.53,4.53,0,0,1,.67.57,4.9,4.9,0,0,0,2.16,1.34h0a20.34,20.34,0,0,1,2.94-.27c.27,0,.54,0,.77,0,1,.31,2.08.7,3.08,1.08.71.27,1.44.55,2.17.79h0c1,0,1.63-.92,2.13-1.7a2.64,2.64,0,0,0,0-1.62,3.94,3.94,0,0,1-.11-.94,1.14,1.14,0,0,1,.67,0,2.76,2.76,0,0,0,.67,0,.56.56,0,0,0,.43-.69,6,6,0,0,0-1.13-2.27,7.12,7.12,0,0,1-1-1.87,7.36,7.36,0,0,0-1.62-2.29,5.81,5.81,0,0,1-1.66-2.54s-.06-.21,0-.29.27,0,.27,0c.34.25.69.53,1,.8a7.93,7.93,0,0,0,3.55,2,23,23,0,0,0,4,.17.53.53,0,0,0,.45-.68,20.32,20.32,0,0,1-1.43-3.7,11,11,0,0,1-.28-5.66.34.34,0,0,1,.32-.26h0a.62.62,0,0,1,.4.52l0,.26c.19,2.72.37,5.29,2,7.48a4.46,4.46,0,0,0,1.69,1.45,4,4,0,0,1,1.23.87,1.7,1.7,0,0,1,.16,1.67l-2,3a6.56,6.56,0,0,0-1.12,2.18,7.45,7.45,0,0,0,0,2.21v.17a.37.37,0,0,1-.15-.17,4.26,4.26,0,0,1-.57-3.72c.27-.63,1.93-3,2.42-3.76.15-.24.28-.49.15-.66a4.79,4.79,0,0,0-1.74-.75h-.07a1.27,1.27,0,0,0-.64.59l-.12.16-2.52,4.57-.05.17a2.3,2.3,0,0,0-.15,1.38c.14.69.35,1.42.51,2,0,.15.09.3.13.45a5.59,5.59,0,0,0,.79,2,1.07,1.07,0,0,0,.87.39,3.81,3.81,0,0,0,.57-.06,2.63,2.63,0,0,1,.92,0,2,2,0,0,1,.92.68,2.17,2.17,0,0,0,1,.73c.78.26,1.59.47,2.38.68a29.79,29.79,0,0,1,3.18,1,6,6,0,0,0,1.82.37,2.4,2.4,0,0,0,1.67-.67,3.46,3.46,0,0,0,1.29-2.26c.16-.87.45-.93,1.08-1a1.61,1.61,0,0,0,.65-.1,6.32,6.32,0,0,0,1.7-2.13c.13-.25.27-.48.4-.68a1,1,0,0,0,.2-.57.59.59,0,0,0-.62-.6h-.16s-2.69,0-3.43,0c-1.1.06-1.58,1.12-2,2.06a6.62,6.62,0,0,1-.48,1,1.66,1.66,0,0,1-1.56.83,5.2,5.2,0,0,1-.89-.18c-1.45-.36-3-.72-3.56-2.16a1.29,1.29,0,0,1,.21-1.19,22,22,0,0,1,2.85-2.86,6,6,0,0,0,3.72-2.74,3.18,3.18,0,0,0,.34-.78,1.71,1.71,0,0,1,.63-1c.23-.12.42-.08.48.12a4.14,4.14,0,0,1-.43,2.2c-.07.16-.13.32-.18.47l0,.12h.12q.6.06,1.23.06a23.86,23.86,0,0,0,4.3-.51,24.46,24.46,0,0,1,4.25-.5H157c.65,0,1.28.06,1.89.11s1.22.11,1.84.11c.22,0,.43,0,.63,0,1.87-.08,3.23-.93,3.64-2.27.38-1.15.34-3.12-.13-5.89,0-.13,0-.21,0-.23a.09.09,0,0,1,0,0c0-.11,0-.21.13-.28s.36,0,.45.22a30.11,30.11,0,0,1,1.33,5.84,12.06,12.06,0,0,0,2,4.73,7.12,7.12,0,0,0,6,3.14,12.83,12.83,0,0,0,1.75-.19,4.9,4.9,0,0,1,.82,0,10,10,0,0,1,8,4,.18.18,0,0,1,0,.13.22.22,0,0,1-.3.16l-.27-.21c-1.8-1.39-3.65-2.83-6-3.12a7.71,7.71,0,0,0-1.31-.11,18.06,18.06,0,0,0-2,.15,17,17,0,0,1-1.86.14,5.42,5.42,0,0,1-2.1-.38c-2.68-.88-4.87-4-5.57-5.87a.32.32,0,0,0-.28-.18.41.41,0,0,0-.23.07c-.31.19-.36.3-.41.49a16.42,16.42,0,0,0,.34,2.12c.35,1.46.59,3.18,2.75,4.59a6.93,6.93,0,0,0,3.43,1.53,4.4,4.4,0,0,0,1.2-.05,9.52,9.52,0,0,1,2.07-.23,10.88,10.88,0,0,1,6.33,2.13,6.37,6.37,0,0,1,.9.67,4.62,4.62,0,0,0,1.32.88,2.79,2.79,0,0,0,1,.19,3,3,0,0,0,1.68-.56,1.71,1.71,0,0,1,.71-.17c.69,0,1.07.53,1.55,1.21a8.39,8.39,0,0,0,1.06,1.27,3,3,0,0,0,2.17.68c.37,0,.74,0,1.11,0l1-.06L194,128v-.09A12.9,12.9,0,0,0,192.93,124.11Zm-71.46-6.38a.9.9,0,0,1-.82.36,1.7,1.7,0,0,1-.93-.26,2.24,2.24,0,0,1-.85-1.77.53.53,0,0,1,.23-.55.5.5,0,0,1,.34-.08,2.51,2.51,0,0,1,1.68.82S121.8,117.15,121.47,117.73Zm.7-11.24a.61.61,0,0,1-.73.28,1.5,1.5,0,0,1-.62-.67c-.17-.31-.32-.58-.73-.55H120a1.83,1.83,0,0,0-.93.44c-.15.12-.74.56-.88.68a4.51,4.51,0,0,0-1.79,2.31,5,5,0,0,0-.12.5,1.12,1.12,0,0,1-.39.85h0l-.13,0a.55.55,0,0,1-.34-.13.4.4,0,0,1-.16-.32,4.86,4.86,0,0,1,1.54-4.12,12.19,12.19,0,0,0,1.9-2.1c.28-.36.57-.73.87-1.07s.6,0,1.22.63a14.33,14.33,0,0,1,1.42,2.54A.87.87,0,0,1,122.17,106.49Zm13.41-18.84c-.3.29-.62.58-1,.88a17.76,17.76,0,0,0-3.08,3.32,9.53,9.53,0,0,0-.9,1.62c0,.06-.09.19-.22.19a.22.22,0,0,1-.17-.09,4.7,4.7,0,0,1,.24-2.51,11.51,11.51,0,0,1,3.92-4.86,1.29,1.29,0,0,1,.69-.2.73.73,0,0,1,.73.44A1,1,0,0,1,135.58,87.65Z"/></svg>