<svg width="40" height="40" viewBox="0 0 40 40" fill="none" xmlns="http://www.w3.org/2000/svg">
<path d="M36.7695 11.5664C36.5703 10.8244 36.1797 10.1477 35.6367 9.60405C35.0938 9.06042 34.4176 8.66893 33.6758 8.46875C30.9453 7.73438 20 7.73438 20 7.73438C20 7.73438 9.05469 7.73437 6.32422 8.46484C5.58211 8.66437 4.90556 9.05565 4.36252 9.59937C3.81948 10.1431 3.42906 10.8201 3.23047 11.5625C2.5 14.2969 2.5 20 2.5 20C2.5 20 2.5 25.7031 3.23047 28.4336C3.63281 29.9414 4.82031 31.1289 6.32422 31.5313C9.05469 32.2656 20 32.2656 20 32.2656C20 32.2656 30.9453 32.2656 33.6758 31.5313C35.1836 31.1289 36.3672 29.9414 36.7695 28.4336C37.5 25.7031 37.5 20 37.5 20C37.5 20 37.5 14.2969 36.7695 11.5664ZM16.5234 25.2344V14.7656L25.5859 19.9609L16.5234 25.2344Z" fill="url(#paint0_linear_11_14)"/>
<defs>
<linearGradient id="paint0_linear_11_14" x1="20" y1="7.73437" x2="20" y2="32.2656" gradientUnits="userSpaceOnUse">
<stop stop-color="#FF0000"/>
<stop offset="1" stop-color="#C10000"/>
</linearGradient>
</defs>
</svg>
